<?xml version="1.0" encoding="UTF-8"?>
<svg id="_레이어_1" data-name="레이어 1" xmlns="http://www.w3.org/2000/svg" viewBox="0 0 342.29 331.23">
  <defs>
    <style>
      .cls-1 {
        fill: #938d82;
      }
    </style>
  </defs>
  <path class="cls-1" d="M164.99,7.34c44.76,51.45,98.54,104.18,157.85,151.44,4.85,3.87,2.92,11.65-3.18,12.75-11.6,2.08-20.75,4.39-35.83,6.15-3.13.37-6.49.83-8.79,2.98-2.9,2.7-3.18,7.12-3.26,11.08-.86,45.74-1.67,73.16,1.88,118.77-21.58,2.49-43.36,3.34-65.07,2.52-11.19-24.03,5.33-58.4-14.46-76.04-15.92-14.19-43.38-2.19-52.21,17.21-8.83,19.41-4.83,41.95-.66,62.86-19.68-.62-55.58-2.33-75.26-2.95-.53-41-1.07-82-1.6-123-.03-2.57-.14-5.35-1.75-7.36-2.17-2.71-6.13-2.94-9.6-2.95-11.12-.03-22.23-.06-33.35-.08-2.35,0-3.76-2.59-2.51-4.58C55.67,115.17,115.18,59,164.99,7.34"/>
</svg>