<?xml version="1.0" encoding="UTF-8"?>
<svg id="_레이어_1" data-name="레이어 1" xmlns="http://www.w3.org/2000/svg" viewBox="0 0 935.89 331.23">
  <defs>
    <style>
      .cls-1 {
        fill: #938d82;
      }
    </style>
  </defs>
  <path class="cls-1" d="M277.54,158.51c0-2.08-.68-3.88-2.04-5.4-1.36-1.52-3.43-2.4-6.2-2.65-.25.32-.6.58-1.04.8-.44.22-.85.36-1.23.43-2.59.25-4.61,1.09-6.06,2.51-1.45,1.42-2.18,3.21-2.18,5.35,0,1.96.87,3.68,2.6,5.16,1.74,1.48,3.93,2.23,6.58,2.23s4.75-.82,6.68-2.46c1.93-1.64,2.89-3.63,2.89-5.97Z"/>
  <path class="cls-1" d="M919.36,181.52l2.13-3.78-.28-19.06-2.22-12.62-.35-4.8v-5.13s.73-10.02.73-10.02l.59-4.26,1.46-5.19-.06-5.83v-5.16s.04-5.11.04-5.11l.03-9.83-.15-7.25.13-3.16-.66-7.49.41-3.02-.44-6.38-.73-4.53,1.3-2.49v-4.7s0-3.25,0-3.25v-7.19c0-1.76.87-2.67-3.96-4.15-2.32-.71.97-2.8,1.2-3.79l1.15-5.09-.22-3.54c3.39-1.85,4.31-5.13-2.58-6.21-11.74-1.86-23.46-1.34-35.46-1.4l-22.69-.12-18.39-.33-30.85-.12c-5.41-.02-10.4.13-15.47.54-5.85-.36-11.65-.33-18.02.13l-18.26-.1c-14.22-.47-27.46-.99-41.64-.23-8.66-.46-17.54-.54-26.39,0l-15.84-.12-23.53-.1-14.82-.05-18.83.03-18.07.09-18.77-.25-24.59.1h-12.71s-22.68-.01-22.68-.01l-15,.03-12.06.18-25.52.34-22.1.32c-3.05.04-9.44-.17-12.45-.47-6.69-.66-10.94-.15-17.48-.05-17.3.26-34.89.05-52.3-.16l-12.49-.15c-21.54-.26-48.35-.39-68.22.52-9.84.45-16.21.72-27.38-.09-10.4-.76-23.31-.87-33.98-.28-14.77.81-28.04,1.05-42.7.81-4.54-.07-8.55-.09-13.31-.41-6.1-.4-13.21.01-19.59-.03-6.85-.04-13.3-.22-20.4-.43-7.47-.22-16.11.77-23.44.8-5.62.03-9.14-.1-14.6.24-10.7.66-23.24-1.22-37.83-.7-8.88-.62-15.53-.96-23.28.41-10.21,1.8-13.73,4.61-8.12,7.66,3.38,1.84.91,3.93-2.52,5.41,1.69,1.22,1.39,2.38,1.57,3.6l1.14,7.63.84,4.92,1.91,9c1.23,3.04,1,5.97-1.68,9.02,2.37,3.31.05,6.57-4.25,9.7,1.67,2.06,1.62,3.87.13,5.91l2.46,2.58c-3.02,1.94-3.36,3.88,0,5.62-3.15,1.67-2.32,3.34-1.79,5.2l1.68,5.81-.41,3.35.05,3.77-.26,4.94c-.1,1.98,1.63,3.82.4,5.74-1.71,2.68.3,5.29.12,8l-.23,3.53.36,6.63.06,4.68-.31,3.92-.32,4.71-.05,6.64-.39,5.05-.7,5.19-.06,8.6-.18,6.64.61,3.55.88,3.46c.25,1-2.72,2.46-2.1,3.5l4.35,7.32-3.7,1.81,1.29,5.81c.18.81-.21,1.8-.71,2.53l-.32,9.9-.33,3.24.03,8.75-.46,35.03.52,3.93-.11,3.54.12,5.84.34,5.54.23,8.89c-1.6,1.49-.75,3,.71,4.32l.29,4.8v5.14c0,2.27-2.27,4.74,2.5,6.9l8.69,1.56c19.95,1.9,30.21-.13,39.42,0l29.48.43c9.19-.43,18.59-.45,27.75.04,10.29-.52,20.56-.57,30.85.07l10.12-.2c7.95-.16,14.53.03,22.47.03l33.36.02h10.73s25.77-.05,25.77-.05l13.96.04,55.24.07h8.97s42.27.01,42.27.01l49.34-.11h43.22s19.42,0,19.42,0l48.09.05,13.19-.12,13.5.11,31.86-.05,15.05.31,33.43-.04h12.38s31.7-.03,31.7-.03l18.06.02,30.81.03,45.38-.06,43.7.15c11.11.04,22.07.43,33.08-.62,12.72.9,25.72.83,39.15.5,7.87-.19,15.45-.92,18.57-3.04,2.26-1.54,1.18-3.41,1.62-4.93l1.63-5.64-1.13-8.46-2.66-5.71.55-6.42,1.35-6.31.21-3.51,1.48-4.22-.09-7.07.25-2.8v-29.17s-.34-7.03-.34-7.03l-.68-3.29c-.8-1.66-1.9-3.13-.95-4.87,1.75-3.21.16-6.43-2.17-9.56,1.63-1.68,1.37-3.36.09-5.04,2.86-2.03,2.91-4.04-.06-5.95l1.55-7.1c3.02-1.65,4.08-3.49.34-5.21ZM164.48,178.59c-.41.7-1.09,1.04-2.04,1.04-1.33,0-2.81-1.1-4.45-3.32-5.18-7.7-9.09-13.32-11.75-16.86-2.84,4.11-5.97,7.97-9.38,11.6-3.41,3.63-6.76,6.68-10.04,9.14-.38.19-1.07.58-2.08,1.18-1.01.6-1.85,1.04-2.51,1.33-.66.28-.99.27-.99-.05s.41-1,1.23-2.04c.82-1.04,1.39-1.78,1.71-2.23,4.36-5.24,8.43-11.24,12.22-18,3.79-6.76,6.57-13.36,8.34-19.8-.44-1.01-1.09-1.99-1.94-2.94s-1.88-1.74-3.08-2.37c-1.71-.88-2.56-1.48-2.56-1.8.06-.32.58-.62,1.56-.9.98-.28,1.97-.43,2.98-.43,1.07,0,2.98.49,5.73,1.47,2.75.98,4.97,1.88,6.68,2.7,1.14.63,1.71,1.39,1.71,2.27,0,.44-.16,1.2-.47,2.27-1.14,4.17-3.09,8.65-5.87,13.45l4.93,6.35c1.45,2.08,3.03,3.38,4.74,3.88.82.25,1.42.51,1.8.76.38.25.73.63,1.04,1.14.57,1.07,1.17,2.48,1.8,4.21.63,1.74,1.04,3.08,1.23,4.03.06.25.09.66.09,1.23,0,1.08-.21,1.96-.62,2.65ZM201.75,121.09c-.32,1.39-.47,3.13-.47,5.21l-.57,64.23c0,3.66-.27,6.9-.81,9.71-.54,2.81-1.22,4.96-2.04,6.44-.82,1.48-1.71,2.23-2.65,2.23-.82,0-1.48-1.23-1.99-3.69-.51-2.46-.79-5.84-.85-10.14l-.28-30.5-12.41.47-.28,25.1c-.06,4.48-.6,8.1-1.61,10.85-1.01,2.75-2.24,4.12-3.69,4.12-.76,0-1.37-1.01-1.85-3.03-.47-2.02-.74-4.77-.81-8.24l-.47-63.28c-.44-.82-1.17-1.64-2.18-2.46-1.01-.82-2.15-1.45-3.41-1.89-.25-.06-.63-.17-1.14-.33-.51-.16-.9-.32-1.18-.47-.28-.16-.43-.36-.43-.62,0-.38.62-.8,1.85-1.28s2.35-.71,3.36-.71,2.79.24,5.35.71c2.56.47,4.47.93,5.73,1.37.63.25,1.06.52,1.28.81.22.28.33.68.33,1.18s-.03.89-.09,1.14c0,.32-.06.98-.19,1.99-.13,1.01-.19,2.15-.19,3.41l-.28,25.48,12.22-.38-.28-34.67c-.51-.95-1.44-1.88-2.79-2.79-1.36-.92-2.76-1.63-4.22-2.13-.25-.06-.65-.17-1.18-.33-.54-.16-.95-.31-1.23-.47-.28-.16-.43-.36-.43-.62,0-.44.65-.9,1.94-1.37,1.29-.47,2.48-.71,3.55-.71,1.2,0,3.33.3,6.39.9,3.06.6,5.23,1.15,6.49,1.66.63.19,1.06.44,1.28.76.22.32.33.73.33,1.23s-.03.88-.09,1.14ZM376.44,143.64c.25,0,.69.06,1.33.19,1.64.19,3.95.28,6.92.28,5.18,0,9.76-.28,13.74-.85l-.19-19.42c-.57-.95-1.6-1.88-3.08-2.79-1.48-.92-3.02-1.63-4.59-2.13-.25-.06-.65-.17-1.18-.33-.54-.16-.95-.31-1.23-.47-.28-.16-.43-.36-.43-.62,0-.44.66-.9,1.99-1.37s2.59-.71,3.79-.71,3.44.28,6.73.85c3.28.57,5.59,1.11,6.92,1.61.57.19.98.43,1.23.71.25.28.38.68.38,1.18s-.03.92-.09,1.23c0,.38-.06,1.07-.19,2.08-.13,1.01-.19,2.05-.19,3.13l-.76,42.72c-.06,4.67-.65,8.46-1.75,11.37-1.11,2.91-2.38,4.36-3.84,4.36-.95,0-1.69-1.03-2.23-3.08-.54-2.05-.84-4.91-.9-8.57l-.28-24.35c-2.84.13-5.24.38-7.2.76-1.39.25-2.43.66-3.13,1.23-.82.7-1.58,1.04-2.27,1.04-.57,0-1.48-.25-2.75-.76-1.07-.57-3-1.89-5.78-3.98-.38-.32-.79-.74-1.23-1.28-.44-.54-.66-1-.66-1.37,0-.44.32-.66.95-.66ZM252.15,121.94c.57,0,1.74.22,3.5.66,1.77.44,3.66.76,5.68.95,2.46.25,6.79.38,12.98.38,1.33,0,2.45.33,3.36,1,.91.66,1.37,1.44,1.37,2.32,0,1.08-.54,1.97-1.61,2.7-1.07.73-2.34,1.09-3.79,1.09-.95,0-1.64.03-2.08.09-2.46,0-4.61.09-6.44.28l-2.75.19h-.66c-1.01,0-1.89-.28-2.65-.85-2.84-1.9-4.96-3.7-6.35-5.4-.7-.82-1.17-1.59-1.42-2.32-.25-.73.03-1.09.85-1.09ZM325.95,168.08c-.95.63-2.4.88-4.36.76-2.65-.13-5.12-.19-7.39-.19-2.53,0-4.74.09-6.63.28l-.19,21.6c0,3.66-.28,6.88-.85,9.66-.57,2.78-1.29,4.91-2.18,6.39-.89,1.48-1.8,2.23-2.75,2.23s-1.67-1.2-2.18-3.6c-.51-2.4-.79-5.78-.85-10.14l-.09-16.29c-5.56,2.27-11.46,4.14-17.71,5.59-6.25,1.45-13.67,3-22.26,4.64-.95.19-1.67.4-2.18.62-.51.22-1.01.55-1.52,1-.57.5-1.29.76-2.18.76-.76,0-1.48-.16-2.18-.47-1.77-.76-3.76-1.77-5.97-3.03-2.21-1.26-3.95-2.37-5.21-3.32-1.01-1.01-1.52-1.8-1.52-2.37,0-.44.32-.66.95-.66.25,0,.55.03.9.09.35.06.74.13,1.18.19,2.21.44,5.18.66,8.9.66h4.26c2.84,0,6-.19,9.47-.57l-.19-8.81c-3.85-.69-7.06-2.27-9.62-4.74s-3.84-5.4-3.84-8.81c0-3.6,1.28-6.63,3.84-9.09s5.95-4.01,10.18-4.64c1.07-.19,1.61-.95,1.61-2.27,0-.25-.06-.69-.19-1.33-4.23.25-7.07.47-8.53.66-1.2.13-2.43.6-3.69,1.42-.7.51-1.42.76-2.18.76-.51,0-1.23-.16-2.18-.47-4.61-2.21-7.64-3.92-9.09-5.12-.82-.82-1.23-1.52-1.23-2.08,0-.5.28-.76.85-.76.25,0,.69.06,1.33.19,3.03.51,6.69.79,10.99.85h4.93c8.97,0,15.12-.19,18.47-.57,3.22-.38,5.4-.85,6.54-1.42.69-.38,1.2-.63,1.52-.76.32-.13.82-.16,1.52-.09.76,0,2.94.32,6.54.95,1.14.32,1.97.7,2.51,1.14.54.44.81,1.04.81,1.8,0,1.07-.41,1.91-1.23,2.51-.82.6-1.86.9-3.13.9l-4.83-.09c-2.65-.13-4.67-.19-6.06-.19l-9.47.19c1.07.95,1.61,1.96,1.61,3.03,0,.44-.09.85-.28,1.23,4.1.44,7.47,1.88,10.09,4.31,2.62,2.43,3.93,5.26,3.93,8.48,0,3.03-1.09,5.81-3.27,8.34-2.18,2.53-5.01,4.29-8.48,5.3l-.19,7.96c9.16-1.45,17.62-3.41,25.39-5.87l-.38-50.97c-.57-.95-1.6-1.88-3.08-2.79-1.48-.92-3.02-1.63-4.59-2.13-.25-.06-.65-.17-1.18-.33-.54-.16-.96-.31-1.28-.47-.32-.16-.47-.36-.47-.62,0-.44.68-.9,2.04-1.37,1.36-.47,2.6-.71,3.74-.71,1.26,0,3.52.28,6.77.85,3.25.57,5.57,1.11,6.96,1.61.63.19,1.06.44,1.28.76.22.32.33.73.33,1.23s-.03.88-.09,1.14c-.25,1.64-.38,3.38-.38,5.21l-.38,37.32,3.22-.28c1.26-.12,2.37-.54,3.32-1.23.88-.82,2.05-1.23,3.5-1.23.95,0,2.08.09,3.41.28s2.46.41,3.41.66c.95.25,1.66.73,2.13,1.42.47.7.71,1.42.71,2.18,0,1.2-.47,2.12-1.42,2.75ZM335.7,172.06c-1.2.57-2.08.85-2.65.85-.76,0-.88-.3-.38-.9.5-.6,1.61-1.69,3.32-3.27,4.86-4.36,9.41-9.66,13.64-15.92,4.23-6.25,7.45-12.5,9.66-18.76-.32-1.01-.99-2.08-2.04-3.22s-2.26-1.99-3.65-2.56c-1.71-.69-2.56-1.23-2.56-1.61.06-.31.62-.65,1.66-.99,1.04-.35,2.1-.52,3.17-.52,1.2,0,3.3.47,6.3,1.42,3,.95,5.35,1.86,7.06,2.75,1.2.63,1.8,1.48,1.8,2.56,0,.63-.19,1.39-.57,2.27-1.96,4.86-4.3,9.28-7.01,13.26,3.22,3.22,5.59,5.4,7.1,6.54,1.26.95,2.3,1.67,3.13,2.18.82.51,1.61.79,2.37.85,1.45.19,2.53.79,3.22,1.8.88,1.14,1.81,2.46,2.79,3.98.98,1.52,1.59,2.69,1.85,3.51.25.57.38,1.33.38,2.27,0,1.45-.44,2.43-1.33,2.94-.25.19-.57.28-.95.28-1.52,0-3.6-1.33-6.25-3.98l-3.98-4.07c-6.19-6.38-10.07-10.29-11.65-11.75-5.56,7.07-12.73,13.23-21.5,18.47-.76.51-1.74,1.04-2.94,1.61ZM413.71,204.03c-1.04.6-2.29.84-3.74.71-1.07-.06-2.91-.09-5.49-.09h-5.87c-4.3.13-9.14.24-14.54.33-5.4.09-9.55.17-12.46.24-3.6,0-6.29-.58-8.05-1.75-1.77-1.17-2.69-3.33-2.75-6.49l-.28-12.79c-.95-1.71-3.06-3-6.35-3.88-.32-.12-.74-.27-1.28-.43-.54-.16-.95-.32-1.23-.47-.28-.16-.43-.36-.43-.62,0-.44.66-.88,1.99-1.33,1.33-.44,2.59-.66,3.79-.66,1.45,0,3.58.14,6.39.43,2.81.28,4.91.62,6.3.99.63.25,1.06.54,1.28.85.22.32.33.76.33,1.33,0,.44-.03.82-.09,1.14,0,.32-.06.96-.19,1.94-.13.98-.19,2.04-.19,3.17v10.7c0,.95.22,1.63.66,2.04.44.41,1.23.62,2.37.62,8.21,0,14.75-.13,19.61-.38,1.77-.06,3.14-.25,4.12-.57.98-.32,1.88-.73,2.7-1.23.95-.44,1.93-.66,2.94-.66.69,0,1.29.03,1.8.09.82,0,2,.09,3.55.28,1.55.19,2.7.38,3.46.57,1.01.25,1.8.68,2.37,1.28.57.6.85,1.31.85,2.13,0,1.07-.52,1.91-1.56,2.51ZM480.64,183.52c-.44.38-.98.57-1.61.57-1.39,0-3.09-1.01-5.12-3.03l-5.12-5.59c-4.8-5.37-8.27-9.19-10.42-11.46-7.64,8.15-16.77,15.5-27.38,22.07-.89.57-2.02,1.11-3.41,1.61-1.39.51-2.08.54-2.08.09,0-.63,1.23-1.99,3.69-4.07,6.57-5.5,12.99-12.2,19.28-20.13,6.28-7.92,11.13-15.9,14.54-23.92-4.74,0-9.79.28-15.16.85-2.15.44-3.63.95-4.45,1.52-.88.57-1.55.85-1.99.85-.25,0-.95-.22-2.08-.66-1.39-.63-3.03-1.52-4.93-2.65-1.89-1.14-3.28-2.08-4.17-2.84-.38-.32-.7-.71-.95-1.18-.25-.47-.38-.84-.38-1.09,0-.44.28-.66.85-.66l1.52.19c3.22.57,7.29.85,12.22.85,5.49,0,11.78-.25,18.85-.76,1.07-.06,2.43-.44,4.07-1.14.5-.25,1.01-.38,1.52-.38s1.04.13,1.61.38c2.9,1.26,4.93,2.27,6.06,3.03.88.44,1.33,1.04,1.33,1.8,0,.57-.28,1.04-.85,1.42-.76.51-1.29,1.14-1.61,1.89-3.22,6.57-7.36,12.85-12.41,18.85l5.68,5.59c1.77,1.77,3.54,2.84,5.31,3.22.95.19,1.61.36,1.99.52.38.16.76.49,1.14,1,.76,1.07,1.71,2.56,2.84,4.45,1.14,1.89,1.86,3.32,2.18,4.26.25.89.38,1.61.38,2.18,0,1.01-.32,1.8-.95,2.37ZM500.44,121c0,.38-.06,1.07-.19,2.08-.13,1.01-.19,2.05-.19,3.13l-.66,64.32c0,3.66-.28,6.88-.85,9.66-.57,2.78-1.3,4.91-2.18,6.39-.88,1.48-1.8,2.23-2.75,2.23s-1.67-1.2-2.18-3.6c-.51-2.4-.79-5.78-.85-10.14l-.57-71.24c-.57-.95-1.6-1.88-3.08-2.79-1.48-.92-3.02-1.63-4.59-2.13-.25-.06-.65-.17-1.18-.33-.54-.16-.96-.31-1.28-.47-.32-.16-.47-.36-.47-.62,0-.44.68-.9,2.04-1.37,1.36-.47,2.64-.71,3.84-.71s3.44.28,6.73.85c3.28.57,5.59,1.11,6.92,1.61.63.19,1.06.44,1.28.76.22.32.33.73.33,1.23s-.03.88-.09,1.14ZM620.65,121c-.32,2.02-.47,3.76-.47,5.21l-.57,64.32c0,3.66-.28,6.88-.85,9.66-.57,2.78-1.26,4.91-2.08,6.39-.82,1.48-1.67,2.23-2.56,2.23-1.01,0-1.77-1.22-2.27-3.65-.51-2.43-.76-5.79-.76-10.09l-.19-32.97c-5.87.44-9.41,1.17-10.61,2.18-.82.7-1.58,1.04-2.27,1.04-.57,0-1.48-.25-2.75-.76-1.39-.69-3-1.77-4.83-3.22-2.84,5.18-6.11,10.07-9.8,14.68-3.69,4.61-7.41,8.56-11.13,11.84-.51.57-1.14,1.09-1.89,1.56s-1.36.71-1.8.71c-.25,0-.44-.09-.57-.28-.13-.19.88-1.8,3.03-4.83,4.61-6.38,8.75-13.51,12.41-21.41,3.66-7.89,6.03-15.76,7.1-23.59-1.07-.06-2.65.03-4.74.28-1.58.13-2.78.54-3.6,1.23-.51.51-1.04.76-1.61.76-.38,0-.82-.09-1.33-.28l-.85-.57c-2.21,8.27-5.97,16.09-11.27,23.45-5.31,7.36-11.24,13.63-17.81,18.8-1.2.82-2.18,1.44-2.94,1.85-.76.41-1.17.46-1.23.14-.25-.32.09-1.09,1.04-2.32s1.55-2,1.8-2.32c4.8-5.81,9.19-12.35,13.17-19.61,3.98-7.26,6.63-14.49,7.96-21.69-.57-.06-2.78.03-6.63.28-.89.06-1.61.17-2.18.33-.57.16-1.07.43-1.52.8-.51.51-1.04.76-1.61.76-.82,0-2.15-.68-3.98-2.04-1.83-1.36-3.22-2.51-4.17-3.46-.32-.25-.58-.58-.81-1-.22-.41-.33-.74-.33-.99,0-.32.19-.47.57-.47.31,0,.73.09,1.23.28,3.28.44,6.12.66,8.53.66,1.52,0,3.28-.05,5.3-.14,2.02-.09,3.41-.2,4.17-.33,1.2-.38,1.93-.63,2.18-.76,1.14-.44,1.99-.66,2.56-.66.32,0,1.23.27,2.75.8,1.52.54,2.65,1,3.41,1.37.76.06,1.96.09,3.6.09,1.77,0,3.65-.11,5.64-.33,1.99-.22,3.43-.62,4.31-1.18.13-.06.49-.2,1.09-.43.6-.22,1.12-.3,1.56-.24.69.06,2.75.82,6.16,2.27.57.32.98.58,1.23.8.25.22.38.49.38.81,0,.44-.24.92-.71,1.42-.47.51-.77.85-.9,1.04-.89,5.94-2.84,12-5.87,18.19l3.41.09,3.69-.09c4.04-.13,7.83-.41,11.37-.85l-.19-32.97c-.63-.95-1.67-1.88-3.13-2.79-1.45-.92-2.91-1.63-4.36-2.13-.25-.06-.65-.17-1.18-.33-.54-.16-.96-.31-1.28-.47-.32-.16-.47-.36-.47-.62,0-.44.66-.9,1.99-1.37s2.59-.71,3.79-.71,3.35.28,6.44.85c3.09.57,5.34,1.11,6.73,1.61.63.19,1.06.44,1.28.76.22.32.33.73.33,1.23s-.03.88-.09,1.14ZM716.81,121.09c-.32,1.39-.47,3.13-.47,5.21l-.57,64.23c0,3.66-.27,6.9-.81,9.71-.54,2.81-1.22,4.96-2.04,6.44-.82,1.48-1.71,2.23-2.65,2.23-.82,0-1.48-1.23-1.99-3.69-.51-2.46-.79-5.84-.85-10.14l-.28-30.6-12.79.57-.28,25.1c-.06,4.48-.6,8.1-1.61,10.85-1.01,2.75-2.24,4.12-3.69,4.12-.76,0-1.37-1.01-1.85-3.03-.47-2.02-.74-4.77-.81-8.24l-.19-22.07c-11.5,4.99-22.07,8.31-31.74,9.95-.76.13-1.33.19-1.71.19-1.01,0-1.96-.28-2.84-.85-3.22-2.4-4.83-5.56-4.83-9.47l-.09-28.89c-.44-.95-1.12-1.74-2.04-2.37-.92-.63-2.23-1.23-3.93-1.8-.25-.06-.65-.16-1.18-.28-.54-.13-.93-.27-1.18-.43-.25-.16-.38-.36-.38-.62-.06-.44.58-.92,1.94-1.42,1.36-.5,2.57-.76,3.65-.76,1.33,0,3.24.17,5.73.52,2.49.35,4.37.74,5.64,1.18.76.19,1.25.52,1.47.99.22.47.27,1.15.14,2.04-.13,1.52-.19,3.19-.19,5.02l-.28,26.62c0,.76.22,1.33.66,1.71.44.38,1.01.51,1.71.38,11.62-1.33,21.44-3.41,29.46-6.25l-.28-36.66c-.44-.82-1.17-1.64-2.18-2.46-1.01-.82-2.15-1.45-3.41-1.89-.25-.06-.63-.17-1.14-.33-.51-.16-.9-.32-1.18-.47-.28-.16-.43-.36-.43-.62,0-.38.62-.8,1.85-1.28s2.35-.71,3.36-.71,2.79.24,5.35.71,4.47.93,5.73,1.37c.63.25,1.06.52,1.28.81.22.28.33.68.33,1.18s-.03.89-.09,1.14c0,.32-.06.98-.19,1.99-.13,1.01-.19,2.15-.19,3.41l-.28,25.29,12.6-.47-.28-34.39c-.51-.95-1.44-1.88-2.79-2.79-1.36-.92-2.76-1.63-4.22-2.13-.25-.06-.65-.17-1.18-.33-.54-.16-.95-.31-1.23-.47-.28-.16-.43-.36-.43-.62,0-.44.65-.9,1.94-1.37,1.29-.47,2.48-.71,3.55-.71,1.2,0,3.33.3,6.39.9,3.06.6,5.22,1.15,6.49,1.66.63.19,1.06.44,1.28.76.22.32.33.73.33,1.23s-.03.88-.09,1.14ZM780.65,139.09c-.7.44-1.23,1.04-1.61,1.8-4.23,9.22-10.07,17.86-17.53,25.91-7.45,8.05-16.1,15.21-25.96,21.46-.63.38-1.53.79-2.7,1.23-1.17.44-2.01.66-2.51.66-.82,0-.79-.47.09-1.42.88-.95,1.99-1.96,3.32-3.03,6.38-5.37,12.85-12.33,19.42-20.89,6.57-8.56,11.52-16.97,14.87-25.25-5.68.13-10.89.44-15.63.95-2.15.44-3.66.95-4.55,1.52-.7.57-1.33.85-1.89.85-.32,0-.7-.09-1.14-.28-.44-.19-.76-.32-.95-.38-1.45-.69-3.13-1.59-5.02-2.7-1.89-1.1-3.25-2.04-4.07-2.79-.38-.32-.7-.71-.95-1.18-.25-.47-.38-.84-.38-1.09.06-.44.31-.66.76-.66l1.61.19c3.22.57,7.26.85,12.13.85s11.02-.28,18.85-.85c1.26-.06,2.62-.44,4.07-1.14.63-.19,1.14-.28,1.52-.28.57,0,1.14.13,1.71.38.82.25,1.86.7,3.13,1.33,1.26.63,2.21,1.17,2.84,1.61.88.51,1.33,1.11,1.33,1.8,0,.57-.25,1.04-.76,1.42ZM804.9,121c0,.38-.06,1.07-.19,2.08-.13,1.01-.19,2.05-.19,3.13l-.66,64.32c0,3.66-.29,6.88-.85,9.66-.57,2.78-1.29,4.91-2.18,6.39-.88,1.48-1.8,2.23-2.75,2.23s-1.69-1.22-2.23-3.65c-.54-2.43-.8-5.79-.8-10.09l-.57-71.24c-.57-.95-1.6-1.88-3.08-2.79-1.48-.92-3.02-1.63-4.59-2.13-.25-.06-.65-.17-1.18-.33-.54-.16-.95-.31-1.23-.47-.28-.16-.43-.36-.43-.62,0-.44.66-.9,1.99-1.37s2.59-.71,3.79-.71,3.44.28,6.73.85c3.28.57,5.59,1.11,6.92,1.61.63.19,1.06.44,1.28.76.22.32.33.73.33,1.23s-.03.88-.1,1.14Z"/>
</svg>