<?xml version="1.0" encoding="UTF-8"?>
<svg id="_레이어_1" data-name="레이어 1" xmlns="http://www.w3.org/2000/svg" viewBox="0 0 782.91 331.23">
  <defs>
    <style>
      .cls-1 {
        fill: #938d82;
      }
    </style>
  </defs>
  <path class="cls-1" d="M766.82,181.52l1.77-3.78-.23-19.06-1.85-12.62-.29-4.8v-5.13s.61-10.02.61-10.02l.49-4.26,1.22-5.19-.05-5.83v-5.16s.04-5.11.04-5.11l.02-9.83-.12-7.25.11-3.16-.55-7.49.34-3.02-.36-6.38-.61-4.53,1.08-2.49v-4.7s0-3.25,0-3.25v-7.19c0-1.76.73-2.67-3.3-4.15-1.93-.71.81-2.8.99-3.79l.96-5.09-.18-3.54c2.82-1.86,3.59-5.13-2.14-6.22-9.77-1.86-19.52-1.34-29.51-1.4l-18.89-.12-15.31-.32-25.67-.12c-4.51-.02-8.66.13-12.88.54-4.87-.36-9.69-.33-14.99.13l-15.2-.1c-11.83-.47-22.86-.99-34.66-.23-7.21-.46-14.6-.54-21.97,0l-13.18-.12-19.58-.1-12.33-.05-15.67.03-15.04.09-15.63-.25-20.46.1h-10.58s-18.88-.01-18.88-.01l-12.48.03-10.03.18-21.24.34-18.39.32c-2.53.04-7.85-.17-10.36-.47-5.57-.66-9.1-.15-14.55-.05-14.4.26-29.04.05-43.53-.16l-10.39-.15c-17.93-.26-40.24-.39-56.78.52-8.19.45-13.49.72-22.79-.09-8.65-.76-19.4-.87-28.28-.28-12.29.81-23.34,1.05-35.54.81-3.78-.07-7.12-.09-11.08-.41-5.07-.4-10.99.01-16.31-.03-5.7-.04-11.07-.22-16.98-.43-6.22-.22-13.41.77-19.51.8-4.68.03-7.6-.1-12.15.24-8.91.66-19.34-1.22-31.49-.7-7.39-.62-12.92-.96-19.37.41-8.5,1.8-11.43,4.61-6.76,7.66,2.81,1.84.76,3.93-2.09,5.41,1.41,1.22,1.15,2.38,1.31,3.6l.95,7.63.7,4.92,1.59,9c1.02,3.04.83,5.97-1.4,9.02,1.97,3.31.04,6.57-3.54,9.7,1.39,2.06,1.35,3.87.11,5.91l2.05,2.58c-2.51,1.94-2.8,3.88,0,5.62-2.62,1.67-1.93,3.34-1.49,5.2l1.4,5.81-.34,3.35.04,3.77-.22,4.94c-.09,1.98,1.36,3.82.34,5.74-1.42,2.68.25,5.29.1,8l-.19,3.53.3,6.63.05,4.68-.26,3.92-.26,4.71-.04,6.64-.33,5.05-.58,5.19-.05,8.6-.15,6.64.51,3.55.73,3.46c.21,1-2.26,2.46-1.75,3.5l3.62,7.32-3.08,1.81,1.07,5.81c.15.81-.18,1.8-.59,2.53l-.27,9.9-.27,3.24.03,8.75-.38,35.03.43,3.93-.09,3.54.1,5.84.28,5.54.19,8.89c-1.33,1.49-.62,3,.59,4.32l.24,4.8v5.14c0,2.27-1.89,4.74,2.08,6.9l7.23,1.56c16.61,1.9,25.14-.13,32.81,0l24.54.43c7.65-.43,15.47-.45,23.1.04,8.56-.52,17.11-.57,25.68.07l8.42-.2c6.62-.16,12.1.03,18.7.03l27.77.02h8.93s21.45-.05,21.45-.05l11.62.04,45.97.07h7.46s35.18.01,35.18.01l41.07-.11h35.97s16.17,0,16.17,0l40.03.05,10.98-.12,11.24.11,26.52-.05,12.52.31,27.82-.04h10.31s26.38-.03,26.38-.03l15.03.02,25.65.03,37.77-.06,36.37.15c9.25.04,18.37.43,27.54-.62,10.58.9,21.4.83,32.58.5,6.55-.19,12.86-.92,15.45-3.04,1.88-1.54.98-3.41,1.35-4.93l1.36-5.64-.94-8.46-2.22-5.71.46-6.42,1.12-6.31.18-3.51,1.23-4.22-.07-7.07.21-2.8v-29.17s-.28-7.03-.28-7.03l-.56-3.29c-.67-1.66-1.58-3.13-.79-4.87,1.46-3.21.13-6.43-1.8-9.56,1.36-1.68,1.14-3.36.08-5.04,2.38-2.03,2.42-4.04-.05-5.95l1.29-7.1c2.51-1.65,3.4-3.49.29-5.21ZM109.2,127.91c.28-.06.81-.06,1.56,0,3.98.57,7.45.85,10.42.85s6.82-.09,11.18-.28c4.36-.19,7.92-.41,10.7-.66,2.84,0,4.93-.44,6.25-1.33.13-.06.35-.19.66-.38.31-.19.62-.32.9-.38.28-.06.58-.09.9-.09.69.06,1.77.21,3.22.43,1.45.22,2.59.46,3.41.71,1.07.32,1.83.66,2.27,1.04.44.38.66.98.66,1.8,0,1.01-.36,1.8-1.09,2.37-.73.57-1.69.85-2.89.85-1.77,0-3.22-.03-4.36-.09l-5.87-.09c-2.65.13-6.11.32-10.37.57-4.26.25-7.82.51-10.66.76-.7.06-1.31.21-1.85.43-.54.22-1.12.58-1.75,1.09-.7.51-1.33.76-1.89.76-.25,0-.62-.08-1.09-.24-.47-.16-.87-.27-1.18-.33-.32-.19-1.52-.85-3.6-1.99-2.08-1.14-3.69-2.18-4.83-3.13-.32-.32-.58-.68-.81-1.09-.22-.41-.33-.74-.33-1,0-.31.14-.5.43-.57ZM133.97,148.75c0,1.01-.63,2.46-1.89,4.36-.51,1.07-1.15,1.97-1.94,2.7-.79.73-1.53,1.09-2.23,1.09-.57,0-.98-.27-1.23-.8-.25-.54-.44-1.31-.57-2.32-.32-2.02-.89-3.87-1.71-5.54-.82-1.67-1.96-3.68-3.41-6.02-.13-.19-.51-.71-1.14-1.56-.63-.85-.85-1.47-.66-1.85.32-.32,1.07-.25,2.27.19,1.2.44,2.18.92,2.94,1.42l1.99,1.23c2.84,1.77,4.67,3.13,5.49,4.07,1.39,1.14,2.08,2.15,2.08,3.03ZM118.15,166.52c-2.46-1.17-4.74-2.45-6.82-3.84-2.08-1.39-3.13-2.49-3.13-3.32,0-.38.28-.57.85-.57.5,0,1.23.09,2.18.28,2.9.51,5.68.76,8.34.76.95,0,2.43-.06,4.45-.19,4.04-.19,10.1-.98,18.19-2.37,1.45-5.68,2.34-10.89,2.65-15.63-.19-.63-.58-1.23-1.18-1.8-.6-.57-1.34-1.04-2.23-1.42-1.2-.44-1.8-.79-1.8-1.04,0-.32.43-.58,1.28-.81.85-.22,1.78-.33,2.79-.33.95,0,2.59.27,4.93.8,2.34.54,4.1,1.09,5.31,1.66.95.57,1.42,1.17,1.42,1.8,0,.44-.13,1.01-.38,1.71-.57,1.58-.89,2.43-.95,2.56-.76,2.21-2.78,6.03-6.06,11.46,7.96-1.52,15.25-3.25,21.88-5.21l-.57-27.19c-.57-.95-1.6-1.88-3.08-2.79-1.48-.92-3.02-1.63-4.59-2.13-.25-.06-.65-.17-1.18-.33-.54-.16-.96-.31-1.28-.47-.32-.16-.47-.36-.47-.62,0-.44.68-.9,2.04-1.37,1.36-.47,2.6-.71,3.74-.71,1.26,0,3.52.28,6.77.85,3.25.57,5.57,1.11,6.96,1.61.63.19,1.06.44,1.28.76.22.32.33.73.33,1.23s-.03.88-.09,1.14c0,.38-.06,1.07-.19,2.08-.13,1.01-.19,2.05-.19,3.13l-.19,27.85c0,2.4-.3,4.56-.9,6.49-.6,1.93-1.36,3.43-2.27,4.5-.92,1.07-1.85,1.61-2.79,1.61-1.01,0-1.79-.82-2.32-2.46-.54-1.64-.84-3.88-.9-6.73l-.09-2.65c-5.31,2.08-12.09,4.22-20.37,6.39-8.27,2.18-15.22,3.77-20.84,4.78-.95.06-1.69.21-2.23.43-.54.22-.99.55-1.37,1-.76.57-1.48.85-2.18.85s-2.27-.58-4.74-1.75ZM183.42,203.32c-1.01.5-2.24.72-3.69.66l-10.52.38c-11.75.5-21.22.76-28.42.76-3.22,0-5.57-.55-7.06-1.66-1.48-1.11-2.29-2.92-2.42-5.45l-.28-6.92c-.44-.7-1.17-1.34-2.18-1.94-1.01-.6-1.99-.96-2.94-1.09-.63-.13-1.25-.3-1.85-.52-.6-.22-.9-.49-.9-.8,0-.38.57-.77,1.71-1.18,1.14-.41,2.21-.62,3.22-.62,5.18,0,9.31.28,12.41.85,10.29,0,18.72-.22,25.29-.66.5-.06.82-.47.95-1.23.13-.95.19-3.6.19-7.96-3.85.06-8.29.19-13.31.38s-8.48.38-10.37.57c-2.21.19-3.76.6-4.64,1.23-.82.51-1.45.76-1.89.76-1.01,0-2.76-.72-5.26-2.18-2.5-1.45-4.25-2.62-5.26-3.5-.89-.76-1.33-1.45-1.33-2.08,0-.25.06-.41.19-.47.13-.06.38-.09.76-.09.57,0,1.04.03,1.42.09,3.22.57,7.26.85,12.13.85,10.42,0,18.88-.25,25.39-.76.69,0,1.44-.14,2.23-.43.79-.28,1.25-.46,1.37-.52.57-.25,1.17-.38,1.8-.38l1.52.19c.82.13,1.99.41,3.5.85,1.52.44,2.62.82,3.32,1.14.88.38,1.33.82,1.33,1.33s-.25.95-.76,1.33l-1.61,1.8c-.06.25-.33,1.53-.81,3.84-.47,2.31-1.06,4.12-1.75,5.45,2.34.76,3.51,1.58,3.51,2.46,0,.76-.44,1.33-1.33,1.71-.89.38-2.12.57-3.69.57-6.63,0-16.2.25-28.7.76l-3.6.09v7.01c0,.76.2,1.29.62,1.61.41.31,1.06.5,1.94.57l5.87.09c5.43,0,10.29-.16,14.59-.47,1.71-.06,3.03-.22,3.98-.47.95-.25,1.8-.6,2.56-1.04,1.07-.57,2.3-.85,3.69-.85,3.09,0,5.59.22,7.48.66,2.08.44,3.13,1.45,3.13,3.03,0,1.01-.51,1.77-1.52,2.27ZM210.52,126.78c.25-.44,1.8-.22,4.64.66,1.45.44,3.44.82,5.97,1.14,2.4.25,6.82.38,13.26.38,1.39,0,2.54.27,3.46.81.91.54,1.37,1.28,1.37,2.23,0,1.07-.55,1.99-1.66,2.75-1.11.76-2.42,1.17-3.93,1.23-3.85,0-6.85.13-9,.38l-2.84.19c-1.33.13-2.46-.16-3.41-.85-2.4-1.77-4.55-3.69-6.44-5.78-.51-.5-.92-1.07-1.23-1.71-.32-.63-.38-1.1-.19-1.42ZM252.96,186.46c-.44.44-.98.66-1.61.66-1.39,0-3.13-.92-5.21-2.75l-5.49-5.31c-4.11-4.1-7.29-7.23-9.57-9.38-7.71,7.07-16.42,13.04-26.15,17.9-.95.44-1.99.84-3.13,1.18-1.14.35-2.05.52-2.75.52-.51,0-.76-.13-.76-.38,0-.5,1.23-1.64,3.69-3.41,6.38-4.29,12.95-9.99,19.7-17.1,6.76-7.1,11.56-13.5,14.4-19.18-2.15,0-4.61.11-7.39.33-2.78.22-5.18.49-7.2.81-1.96.32-3.44.82-4.45,1.52-.82.57-1.48.85-1.99.85-.32,0-1.01-.22-2.08-.66-1.39-.63-3.03-1.52-4.93-2.65-1.9-1.14-3.28-2.08-4.17-2.84-.38-.32-.7-.71-.95-1.18-.25-.47-.38-.84-.38-1.09,0-.44.25-.66.76-.66.25,0,.52.03.81.09.28.06.55.13.81.19,3.41.51,7.48.76,12.22.76s10.36-.25,17.43-.76c1.07-.06,2.43-.44,4.07-1.14.5-.25,1.01-.38,1.52-.38s1.04.13,1.61.38c3.35,1.26,5.43,2.21,6.25,2.84.88.7,1.33,1.33,1.33,1.9,0,.51-.28.95-.85,1.33-.63.44-1.17,1.07-1.61,1.89-3.03,5.12-6.95,10.14-11.75,15.06,1.33,1.33,2.71,2.56,4.17,3.69,1.64,1.58,3.44,2.56,5.4,2.94.76.13,1.39.3,1.89.52.5.22.98.58,1.42,1.09.88,1.07,1.89,2.43,3.03,4.07,1.14,1.64,1.86,2.91,2.18,3.79.38.76.57,1.55.57,2.37,0,.88-.28,1.61-.85,2.18ZM272.66,121c0,.38-.06,1.07-.19,2.08-.13,1.01-.19,2.05-.19,3.13l-.66,64.32c0,3.66-.28,6.88-.85,9.66-.57,2.78-1.3,4.91-2.18,6.39-.89,1.48-1.8,2.23-2.75,2.23s-1.67-1.2-2.18-3.6c-.51-2.4-.79-5.78-.85-10.14l-.57-71.24c-.57-.95-1.6-1.88-3.08-2.79-1.48-.92-3.02-1.63-4.59-2.13-.25-.06-.65-.17-1.18-.33-.54-.16-.96-.31-1.28-.47-.32-.16-.47-.36-.47-.62,0-.44.68-.9,2.04-1.37,1.36-.47,2.64-.71,3.84-.71s3.44.28,6.73.85c3.28.57,5.59,1.11,6.92,1.61.63.19,1.06.44,1.28.76.22.32.33.73.33,1.23s-.03.88-.09,1.14ZM464.25,116.12c1.36-.47,2.6-.71,3.74-.71,1.26,0,3.52.28,6.77.85,3.25.57,5.57,1.11,6.96,1.61.63.19,1.06.44,1.28.76.22.32.33.73.33,1.23s-.03.88-.09,1.14c0,.38-.06,1.07-.19,2.08-.13,1.01-.19,2.05-.19,3.13l-.19,30.79c0,2.4-.3,4.56-.9,6.49-.6,1.93-1.36,3.43-2.27,4.5-.92,1.07-1.85,1.61-2.79,1.61-1.01,0-1.79-.81-2.32-2.42-.54-1.61-.84-3.84-.9-6.68l-.66-36.66c-.57-.95-1.6-1.88-3.08-2.79-1.48-.92-3.02-1.63-4.59-2.13-.25-.06-.65-.17-1.18-.33-.54-.16-.96-.31-1.28-.47-.32-.16-.47-.36-.47-.62,0-.44.68-.9,2.04-1.37ZM315.53,178.12c-1.36.32-2.04.25-2.04-.19,0-.38.6-.98,1.8-1.8,1.2-.82,1.99-1.36,2.37-1.61,6.25-4.17,12.55-9.93,18.9-17.29,6.35-7.36,11.13-14.57,14.35-21.65-6.06,0-11.08.25-15.06.76-2.08.32-3.6.79-4.55,1.42-.82.51-1.48.76-1.99.76s-1.2-.19-2.08-.57c-1.2-.57-2.64-1.39-4.31-2.46-1.67-1.07-2.95-2.02-3.84-2.84-.38-.38-.7-.79-.95-1.23-.25-.44-.38-.79-.38-1.04,0-.44.31-.66.95-.66.5,0,.95.03,1.33.09,3.28.57,7.29.85,12.03.85s10.83-.25,17.9-.76c.82-.06,2.18-.41,4.07-1.04.5-.25,1.01-.38,1.52-.38s1.04.13,1.61.38c1.01.32,2.1.73,3.27,1.23,1.17.51,2.07.95,2.7,1.33.88.51,1.33,1.07,1.33,1.71,0,.51-.28,1.01-.85,1.52-.13.13-.4.38-.81.76-.41.38-.68.76-.81,1.14-2.4,5.62-5.95,11.08-10.66,16.39-4.71,5.3-9.9,10.03-15.58,14.16-5.68,4.14-11.21,7.41-16.58,9.8-1.07.51-2.29.92-3.65,1.23ZM388.85,202.32c-1.04.6-2.29.87-3.74.81-2.53-.13-4.71-.19-6.54-.19l-4.83.09-22.83.47c-3.79.06-6.57-.47-8.34-1.61-1.77-1.14-2.72-3.35-2.84-6.63l-.38-10.7c-.89-1.64-3-2.97-6.35-3.98-.25-.06-.65-.17-1.18-.33-.54-.16-.95-.32-1.23-.47-.28-.16-.43-.36-.43-.62,0-.44.65-.88,1.94-1.33,1.29-.44,2.54-.66,3.74-.66,1.52,0,3.66.13,6.44.38,2.78.25,4.83.6,6.16,1.04.76.25,1.23.6,1.42,1.04.19.44.22,1.17.09,2.18-.32,1.89-.47,3.47-.47,4.74l.19,9.19c0,1.71.92,2.56,2.75,2.56,5.24,0,10.61-.09,16.1-.28,1.83-.13,3.25-.33,4.26-.62,1.01-.28,1.89-.68,2.65-1.18.76-.38,1.44-.62,2.04-.71.6-.09,1.53-.11,2.79-.05,1.07.06,2.3.19,3.69.38,1.39.19,2.46.41,3.22.66,2.15.69,3.22,1.83,3.22,3.41,0,1.01-.52,1.81-1.56,2.42ZM397.61,160.31c-3.54-.13-7.74,0-12.6.38l-.09,8.05c-.06,3.09-.38,5.84-.95,8.24-.57,2.4-1.28,4.25-2.13,5.54-.85,1.29-1.72,1.94-2.6,1.94-.95,0-1.69-1.04-2.23-3.13-.54-2.08-.84-4.93-.9-8.53l-.57-48.98c-.63-.95-1.67-1.88-3.13-2.79-1.45-.92-2.97-1.63-4.55-2.13-.25-.06-.65-.17-1.18-.33-.54-.16-.95-.31-1.23-.47-.28-.16-.43-.36-.43-.62,0-.44.66-.9,1.99-1.37s2.59-.71,3.79-.71,3.44.28,6.73.85c3.28.57,5.59,1.11,6.92,1.61.82.19,1.33.52,1.52.99s.22,1.18.09,2.13c-.32,2.02-.47,3.76-.47,5.21l-.47,28.89,2.18-.19c1.26-.13,2.34-.57,3.22-1.33,1.01-.82,2.08-1.23,3.22-1.23.88,0,1.99.09,3.32.28s2.46.41,3.41.66c.95.19,1.66.6,2.13,1.23.47.63.71,1.36.71,2.18,0,2.4-1.89,3.6-5.68,3.6ZM410.16,173.48c-1.36.32-2.04.25-2.04-.19,0-.38.6-.98,1.8-1.8,1.2-.82,1.99-1.36,2.37-1.61,6.25-4.23,12.65-9.69,19.18-16.39,6.54-6.69,11.42-12.95,14.64-18.76-6.06,0-11.08.25-15.06.76-2.08.32-3.6.79-4.55,1.42-.82.51-1.48.76-1.99.76s-1.2-.19-2.08-.57c-1.2-.57-2.64-1.39-4.31-2.46-1.67-1.07-2.95-2.02-3.84-2.84-.38-.38-.7-.79-.95-1.23-.25-.44-.38-.79-.38-1.04,0-.44.32-.66.95-.66.5,0,.95.03,1.33.09,3.35.57,7.36.85,12.03.85s10.83-.25,17.9-.76c.82-.06,2.18-.41,4.07-1.04.5-.25,1.01-.38,1.52-.38s1.04.13,1.61.38c1.01.32,2.1.73,3.27,1.23,1.17.51,2.07.95,2.7,1.33.88.51,1.33,1.07,1.33,1.71,0,.51-.28,1.01-.85,1.52-.89.88-1.42,1.52-1.61,1.89-2.65,4.86-6.25,9.51-10.8,13.93l3.88,2.84c2.02,1.58,3.92,2.4,5.68,2.46.19,0,.55.03,1.09.09.54.06.98.17,1.33.33.35.16.65.36.9.62.82.82,1.78,1.99,2.89,3.5,1.1,1.52,1.88,2.69,2.32,3.5.44,1.01.66,1.9.66,2.65,0,.82-.19,1.42-.57,1.8-.51.57-1.17.85-1.99.85-1.39,0-3.06-.76-5.02-2.27l-5.87-4.93-9.28-7.58c-4.3,3.85-8.94,7.42-13.93,10.71-4.99,3.28-9.88,5.97-14.68,8.05-1.07.51-2.29.92-3.65,1.23ZM483.53,179.16c-.82.7-1.23,1.36-1.23,1.99l-.47,13.07c-.06,2.78-.4,5.24-.99,7.39-.6,2.15-1.3,3.8-2.08,4.97-.79,1.17-1.56,1.75-2.32,1.75-1.07,0-1.91-.9-2.51-2.7-.6-1.8-.93-4.31-.99-7.53l-.28-17.81c-4.61-.06-9.82.14-15.63.62-5.81.47-9.73.93-11.75,1.37-1.64.38-2.94.85-3.88,1.42-.82.57-1.55.85-2.18.85-.44,0-1.2-.22-2.27-.66-1.83-.76-3.81-1.69-5.92-2.79-2.12-1.1-3.65-2.07-4.59-2.89-.38-.32-.7-.71-.95-1.18-.25-.47-.38-.84-.38-1.09,0-.5.28-.76.85-.76.19,0,.66.06,1.42.19,4.42.57,9.09.85,14.02.85,2.59,0,7.06-.16,13.4-.47,6.35-.32,11.54-.6,15.58-.85,1.01-.06,2.34-.44,3.98-1.14.69-.19,1.2-.28,1.52-.28.5,0,1.07.09,1.71.28,1.71.57,3.44,1.33,5.21,2.27.82.51,1.23,1.11,1.23,1.8,0,.44-.16.89-.47,1.33ZM511.95,125.92c.25-.44,1.8-.22,4.64.66,1.45.44,3.44.82,5.97,1.14,2.4.25,6.82.38,13.26.38,1.39,0,2.54.27,3.46.81.91.54,1.37,1.28,1.37,2.23,0,1.07-.55,1.99-1.66,2.75-1.11.76-2.42,1.17-3.93,1.23-3.85,0-6.85.13-9,.38l-2.84.19c-1.33.13-2.46-.16-3.41-.85-2.4-1.77-4.55-3.69-6.44-5.78-.51-.5-.92-1.07-1.23-1.71-.32-.63-.38-1.1-.19-1.42ZM545.06,177.69c-1.61,2.56-3.84,4.59-6.68,6.11-2.84,1.52-6,2.27-9.47,2.27s-6.44-.66-9.28-1.99c-2.84-1.33-5.1-3.21-6.77-5.64-1.67-2.43-2.51-5.23-2.51-8.38,0-4.17,1.36-7.64,4.07-10.42,2.71-2.78,6.25-4.51,10.61-5.21,1.14-.25,1.71-.88,1.71-1.89,0-.5-.19-1.33-.57-2.46.32-.06.79-.09,1.42-.09,1.64,0,2.97.52,3.98,1.56,1.01,1.04,1.36,2.13,1.04,3.27,2.9.32,5.49,1.18,7.77,2.61s4.03,3.17,5.26,5.26c1.23,2.08,1.85,4.3,1.85,6.63,0,3.03-.81,5.83-2.42,8.38ZM555.1,146.2c-.85.63-1.91.95-3.17.95-1.58,0-2.84-.03-3.79-.09-.82,0-1.99-.02-3.51-.05-1.52-.03-2.81-.01-3.88.05-2.78.13-6.95.33-12.5.62-5.56.28-9.09.52-10.61.71-.82.06-1.45.22-1.89.47-.44.25-1.07.63-1.89,1.14-.89.51-1.61.76-2.18.76-.51,0-1.23-.19-2.18-.57-1.58-.76-3.28-1.67-5.12-2.75-1.83-1.07-3.22-1.99-4.17-2.75-.38-.31-.7-.71-.95-1.18-.25-.47-.38-.84-.38-1.09,0-.5.25-.76.76-.76.19,0,.66.06,1.42.19,4.1.57,7.45.85,10.04.85,3.35,0,7.61-.09,12.79-.28,5.18-.19,9.31-.41,12.41-.66,3.35-.25,5.53-.76,6.54-1.52.5-.44.95-.73,1.33-.85.38-.13.98-.19,1.8-.19.63.06,1.69.22,3.17.47,1.48.25,2.76.51,3.84.76,1.2.38,2.07.79,2.61,1.23.54.44.81,1.11.81,1.99,0,1.08-.43,1.93-1.28,2.56ZM583.76,169.22c-.76-.06-2.05-.09-3.88-.09-2.08,0-4.77.06-8.05.19l-2.18.09-.19,21.12c0,3.66-.28,6.88-.85,9.66-.57,2.78-1.29,4.91-2.18,6.39-.89,1.48-1.8,2.23-2.75,2.23s-1.69-1.22-2.23-3.65c-.54-2.43-.84-5.79-.9-10.09l-.47-71.24c-.63-.95-1.67-1.88-3.13-2.79-1.45-.92-2.97-1.63-4.55-2.13-.19-.06-.57-.17-1.14-.33-.57-.16-1.01-.31-1.33-.47-.32-.16-.47-.36-.47-.62,0-.44.66-.9,1.99-1.37s2.59-.71,3.79-.71c1.26,0,3.52.28,6.77.85,3.25.57,5.57,1.11,6.96,1.61.63.19,1.06.44,1.28.76.22.32.33.73.33,1.23s-.03.88-.09,1.14c-.32,2.02-.47,3.76-.47,5.21l-.38,37.7,3.41-.28c1.26-.12,2.3-.54,3.13-1.23,1.07-.88,2.15-1.33,3.22-1.33.88,0,2.05.13,3.51.38,1.45.25,2.65.51,3.6.76,1.07.25,1.85.74,2.32,1.47.47.73.68,1.53.62,2.42-.32,2.27-2.21,3.32-5.68,3.13ZM644.86,139.09c-.7.44-1.23,1.04-1.61,1.8-4.23,9.22-10.07,17.86-17.53,25.91-7.45,8.05-16.1,15.21-25.96,21.46-.63.38-1.53.79-2.7,1.23-1.17.44-2.01.66-2.51.66-.82,0-.79-.47.09-1.42.88-.95,1.99-1.96,3.32-3.03,6.38-5.37,12.85-12.33,19.42-20.89,6.57-8.56,11.53-16.97,14.87-25.25-5.68.13-10.89.44-15.63.95-2.15.44-3.66.95-4.55,1.52-.7.57-1.33.85-1.89.85-.32,0-.7-.09-1.14-.28-.44-.19-.76-.32-.95-.38-1.45-.69-3.13-1.59-5.02-2.7-1.89-1.1-3.25-2.04-4.07-2.79-.38-.32-.7-.71-.95-1.18-.25-.47-.38-.84-.38-1.09.06-.44.31-.66.76-.66l1.61.19c3.22.57,7.26.85,12.13.85s11.02-.28,18.85-.85c1.26-.06,2.62-.44,4.07-1.14.63-.19,1.14-.28,1.52-.28.57,0,1.14.13,1.71.38.82.25,1.86.7,3.13,1.33,1.26.63,2.21,1.17,2.84,1.61.88.51,1.33,1.11,1.33,1.8,0,.57-.25,1.04-.76,1.42ZM669.11,121c0,.38-.06,1.07-.19,2.08-.13,1.01-.19,2.05-.19,3.13l-.66,64.32c0,3.66-.28,6.88-.85,9.66-.57,2.78-1.29,4.91-2.18,6.39-.88,1.48-1.8,2.23-2.75,2.23s-1.69-1.22-2.23-3.65c-.54-2.43-.8-5.79-.8-10.09l-.57-71.24c-.57-.95-1.6-1.88-3.08-2.79-1.48-.92-3.02-1.63-4.59-2.13-.25-.06-.65-.17-1.18-.33-.54-.16-.95-.31-1.23-.47-.28-.16-.43-.36-.43-.62,0-.44.66-.9,1.99-1.37s2.59-.71,3.79-.71,3.44.28,6.73.85c3.28.57,5.59,1.11,6.92,1.61.63.19,1.06.44,1.28.76.22.32.33.73.33,1.23s-.03.88-.09,1.14Z"/>
  <path class="cls-1" d="M530.9,159.36c-.25.32-.62.6-1.09.85-.47.25-.9.41-1.28.47-2.91.38-5.18,1.41-6.82,3.08-1.64,1.67-2.46,3.71-2.46,6.11s.95,4.59,2.84,6.39,4.39,2.7,7.48,2.7c2.84,0,5.29-.98,7.34-2.94,2.05-1.96,3.08-4.29,3.08-7.01,0-2.46-.76-4.63-2.27-6.49-1.52-1.86-3.79-2.92-6.82-3.17Z"/>
</svg>