<?xml version="1.0" encoding="UTF-8"?>
<svg id="_레이어_1" data-name="레이어 1" xmlns="http://www.w3.org/2000/svg" viewBox="0 0 219.52 232.56">
  <path d="M202.27,131.81c-1.49-39.37-2.6-79.13-4.09-118.5-56.75,2.59-113.27,1.77-169.98-1.66-2.06-.12-4.26-.22-6.06.8-1.53.87-2.53,2.44-3.35,4-4.12,7.85-5.23,16.89-6.1,25.71-5.47,55.29-4.67,110.98-3.87,166.53.02,1.62.07,3.33.88,4.73,1.11,1.92,3.38,2.82,5.51,3.45,9.18,2.73,18.88,3.1,28.45,3.35,48.9,1.3,97.87.14,146.66-3.48,3.78-.28,8-.79,10.42-3.71,1.92-2.32,2.17-5.56,2.3-8.57,1.07-24.2.15-48.44-.76-72.64ZM193.28,145.9c-1.6,15.26-7.05,29.48-18.14,40.25-2.66,2.58-5.35,4.86-8.38,7.02-6.67,4.76-13.68,8.88-21.08,12.4-3,1.42-6.02,2.29-9.31,2.38l-10.51.28-39.18-.1-6.49-.51c-5.85-.46-20.38-9.52-26-13.38l-6.6-5.05c-7.53-6.32-13.27-14.36-16.82-23.55-2.36-6.09-3.84-12.35-4.55-18.86-.77-7.13-1.33-14.14-1.27-21.31.06-6.58.52-12.93,1.59-19.39.77-4.6,1.93-8.94,3.55-13.3,4.92-13.24,14.19-23.42,27.33-28.74,6.68-2.7,13.18-3.99,20.25-5.1,3.38-.53,8.33-1.24,10.86-3.05,4.29-3.06,5.02-11.48,4.24-16.66-.4-2.71-1.61-4.92-3.56-6.78-1.54-1.47-5.27-5.4-4.77-6.55.1-.23.59-.51.89-.53l5.89-.34,12.42-.22,28.26.35,2.66.39c.54.08.5.96.24,1.39-1.24,1.99-2.75,3.72-4.47,5.34-2.04,1.92-3.38,4.21-3.78,7.06-.7,4.88-.02,12.3,3.4,15.82,2.12,2.18,7.29,3.08,10.64,3.59,8.52,1.3,16.48,2.8,24.33,6.57,16.21,7.78,24.78,22.69,27.83,40.03,2.28,13.01,1.9,27.37.52,40.53Z"/>
</svg>