<?xml version="1.0" encoding="UTF-8"?>
<svg id="_레이어_1" data-name="레이어 1" xmlns="http://www.w3.org/2000/svg" viewBox="0 0 285.28 99.17">
  <path d="M33.09,17.66c-1.11-.02-2.31,0-3.22.64-1.03.74-1.39,2.08-1.67,3.32-4.07,18.54-4.35,37.9-.82,56.54.37,1.95.92,4.1,2.59,5.17,1.17.75,2.63.79,4.02.81,74.67,1.18,157.75-3.22,232.42-2.04,2.79-18.33,8.55-42.61,8.7-61.15l-242.03-3.31ZM260.55,63.93l-2.26.65c-1.21.08-2.08.16-3.17.55l-1.45.52-2.11.73c-.71.25-1.32.34-2.08.3-1.66-.09-3.19.61-4.57,1.45-1,.02-2.12-.04-2.99.33-.69.29-1.2.49-1.92.62l-2.72.53c-1.53.3-3.7.46-4.8,1.76-1.49.02-2.99.46-4.35,1.18l-3.75.7-2.4.76c-1.02.32-1.84.88-2.99.76-.86-.09-1.79.29-2.6.63l-2.21.91-1.43-.06c-1.33-.05-2.66.13-4.1.51l-1.43.38c-.62.16-1.64.33-2.28.26l-3.82-.41c-.43-.23-1.03-.56-1.52-.59l-1.86-.14c-.77-.06-1.23.16-1.93.54-.96.52-2.8-.8-5.27-1.05-1.28-.13-2.72-1.64-6.16-.62l-1.65-.35-1.41-1.15c-.27-.22-1.1-.18-1.44-.27l-2.09-.55-2.04-.46-1.71-.23-4.31-1.45-1.62-.31c-.81-.16-1.8-.61-2.45-1.02l-1.19-.74-1.04-.87c-1.17-.15-1.97-.68-2.66-1.59-1.92-.25-3.14-1.6-5.11-2.08l-1.7-.41c-.58-.14-.96-.88-1.42-1.15-1.54-.9-2.89-.83-3.78-1.51-.73-.18-1.42-.47-2.03-.95-1.02-.18-1.97-.5-2.89-.99-.79,0-1.53-.2-2.19-.6-.66-.67-1.41-.52-2.24-.63-.72-.1-1.6-.66-2.35-.5-.92.19-1.49.04-2.38-.11-.72-.12-1.76.21-2.53.17l-1.6-.08-3.43.31-1.66.35c-1.68.35-2.08.83-3.19,1.03-2.02-.27-3.2,1.06-4.35,1.23l-1.67.25c-.61.09-1.38.08-1.96.4-.6.33-1.25.89-1.88,1.05l-2.23.58c-.36.09-1.15-.06-1.52.07l-2.02.73-2.3.69-1.76.71-1.52.31-2.98.26-1.64.39c-1.32.31-2.43.81-3.81.62-.82-.11-1.8.2-2.59.21-.96.02-1.6.14-2.56.38l-2.32-.03c-1.34.39-2.39.36-3.75.21l-2.58.39c-.76-.11-1.32-.16-2.05.01l-2.02.48c-.53.13-.96-.09-1.5-.14l-2.22-.22c-1.34-.13-2.62.09-3.74.86-1.43-.61-2.53.12-3.83.38l-2.12.42c-.66.13-1.51-.02-2.17-.18-1.46-.35-2.81.24-4.19.6l-2.08.54c-1.12.29-2.41-.07-3.55,0l-3.73.23h-1.25c-.77,0-1.44.29-2.04.81l-1.8-.07v-35.1c.6.21,1.19.22,1.95.15.71-.06,1.48.25,2.2.41,1.26.28,2.59.22,3.88.4,2.31.32,4.54.86,6.88.95.78.03,1.51-.01,2.22.21l1.77.56c.53.17,1.53,0,2.15.02l2.83.11c1.01.16,2,.18,2.95-.02l2.99.58c.8.15,1.62.06,2.45-.13,2.81.75,4.75-.71,6.42.17l2.03.48c.92.22,2.15.36,3.14.28l2.65-.2c.89-.07,1.85-.3,2.7-.02l1.75.58,3.59.64,4.27.93,3.67,1.04c.8-.25,1.48-.21,2.29-.02l1.64.65,2.4.89c1.41.53,2.83.78,4.21,1.48,1.14-.11,2.18.11,3.14.7.53.15.96.37,1.4.71.84.66,1.88.85,2.94,1.11l1.66.41c.94.7,1.97.9,3.09,1.2l3.05.82,2.61.69c1.08.29,2.32.8,3.44.45.76-.24,1.39-.37,2.18-.16.61-.17,1.28-.26,1.92-.23l2.7-.37c.6-.08,1.43-.24,1.94-.44l1.45-.7,2.07-.99c.97.19,1.56,0,2.24-.64.46-.43,1.15-.56,1.73-.91l1.4-.83c.64.07,1.09-.1,1.59-.54l1.03-.91c.82-.73,1.73-.99,2.73-1.52l3.29-1.73,1.9-1.12,1.4-.67c.63-.3.9-.67,1.36-1.16.83-.88,1.98-1.7,3-2.35l1.92-.1c.4-.02.92-.18,1.26-.41l2.22-1.48,3.15-1.34c1.52.05,2.59-.12,3.82-1.08l1.7-1.02c1.63-.15,3.08-.45,4.56-1.07.92-.39,1.86-.53,2.85-.72,1-.2,1.94-.8,2.81-1.33.52-.32.94-.08,1.5-.02,1.9.22,4.02-.98,5.92-.74,1.14.14,2.06.23,3.17-.25,2.75-1.19,3.55.27,5.97.02.48-.05,1.08-.11,1.47.07,1.17.53,2.2.46,3.42.35.42.12,1.06.27,1.52.24l2-.12,1.69.56,3.15.63,2.2.64c1.14,1.14,2.41.94,3.86,1.09l2.95.3,3.32.96c.95.28,1.72.6,2.76.68l2.4.67,3,.36,1.96.48c2.44,1.04,4.77,1.58,7.41,1.77l2.15.58,2.84.62,2.78.46v26.15Z"/>
  <path d="M266.41,82.12c-1.53.89-.33.79.44.52,1.44,1.37,2.03-1.96-.44-.52Z"/>
</svg>