<?xml version="1.0" encoding="UTF-8"?>
<svg id="_레이어_1" data-name="레이어 1" xmlns="http://www.w3.org/2000/svg" viewBox="0 0 242.97 248.46">
  <path d="M214.74,24.74c-58.79-2.04-120.82-3.68-179.61-5.72-2.47-.09-5.12-.12-7.17,1.26-2.15,1.45-3.09,4.11-3.76,6.61-2.59,9.69-3.08,19.8-3.47,29.83-2.24,57.56-1.45,115.24,2.35,172.71.22,3.29.48,6.7,2.11,9.56,3.68,6.45,12.39,7.49,19.81,7.75,35.68,1.27,71.38,1.84,107.07,1.7,18.47-.07,37.01-.33,55.27-3.14,2.89-.44,5.99-1.07,7.98-3.21,2.18-2.35,2.41-5.85,2.53-9.05,1.44-39.25,2.87-78.49,4.31-117.74,1.11-30.42-1.05-60.79-7.41-90.56ZM89.85,31.72c9.42,0,17.07,7.64,17.07,17.07s-7.64,17.07-17.07,17.07-17.07-7.64-17.07-17.07,7.64-17.07,17.07-17.07ZM213.61,99.1l-.43,3.84c-.47,4.22-1.46,8.13-3.24,11.99-1.09,2.36-1.96,4.78-3.76,6.7l-3.02,4.03-4.67,4.58-1.8,1.4-3.47,2.97-2.63,2.44-1.51,1.85c-1.45,1.2-2.26,2.64-2.95,4.34l-1.16,2.87-.67,2.13-.65,3.82c-.15.9-.17,1.68-.08,2.6v.88s.28,1.98.28,1.98l.61,2.75c.34,1.51,1.09,2.98,1.95,4.27l2.08,3.1,2.93,3.54,2.18,2.85c2.8,3.66,4.61,7.83,5.46,12.41l.56,3.98.15,1.91c.13,1.7-.14,3.48-.41,5.16l-.25,1.57-1.06,4.1c-.81,3.13-2.06,5.98-3.88,8.61l-3.28,4.76c-.91,1.31-1.89,2.5-3.09,3.57l-2.24,2.58-5.55,4.46-3.31,2.41c-2.46,1.79-3.95,1.92-5.81,3.21-1.51,1.06-3.36,1.59-5.16,2.05-2.81,1.54-5.8,2.29-8.93,2.81l-2.92.74c-1.22-.01-2.19.26-3.35.39l-3.07.36-2.94.29-3.4.03-2.72-.17-2.22-.11-3.61-.29c-2.55.12-5-.18-7.43-1.02-5.16-.53-10.09-1.83-14.68-4.18l-3.65-1.58c-3.09-1.33-5.8-3-8.56-5l-4.62-3.34c-1.69-1.22-3.11-2.62-4.46-4.2l-1.75-2.05-3.03-3.42-1.15-1.48c-1.43-1.83-2.66-3.68-3.7-5.76l-1.27-2.56-2.77-6.45c-.97-2.26-1.3-4.73-1.69-7.15l-.33-2.1-.27-2.5-.4-4.03-.36-3.72c-.24-2.52-1.11-4.89-2.26-7.22l-1.43-2.16-1.53-1.66-1.92-1.72c-.61-.54-1.16-.99-1.87-1.38l-3.84-2.15c-1.87-1.04-3.73-1.95-5.45-3.18l-3.3-2.36c-1.84-1.16-3.48-2.49-4.65-4.37-2.09-1.61-3.44-3.68-4.72-5.94l-1.52-2.68-.87-2.18c-.83-2.1-1.31-4.18-1.69-6.4-.19-1.15-.68-2.36-.63-3.56l.21-5.1c.05-1.33.09-2.84.65-4.04.54-1.15.8-2.13,1.08-3.4.52-2.31,1.49-4.75,2.96-6.61.82-1.04,1.44-1.9,2.07-3.03.79-1.41,2-2.69,3.2-3.79.64-.58,1.72-.91,2.26-1.55,2.97-3.56,4.83-3.15,7.2-4.67.89-.57,1.58-1.02,2.6-1.26l5.08-1.19c.84-.2,1.66-.06,2.54-.04,1.44.03,2.94-.27,4.39-.41,1.69-.16,3.08.31,4.67.62l3,.57,3.54,1.11,2.26.93,2.6,1.24c1.19.57,2.21,1.36,3.26,2.2l2.07,1.16,4.61,2.24c.94.46,1.65.72,2.81.85.51.06,1.45.66,1.95.7l2.66.22,3.23-.05,4.47-.58c1.55-.2,2.99-.9,4.36-1.7l2.93-1.7,2.71-2.12c1.08-.85,1.7-2.08,2.46-3.18.89-1.28,1.74-2.5,2.27-3.98l2-5.6.43-1.89c.82-3.61,2.15-7.02,3.88-10.28.74-1.39,1.58-2.52,2.45-3.82l.96-1.44,1.95-2.03,2.98-2.93c1.51-1.48,3.37-2.69,5.12-3.88l1.07-.14,3.92-2.5c.48-.31,1.43-.62,1.97-.78l2.37-.72,2.31-.87,3.52-.93c3.37-.89,7.05-1.27,10.49-.78,1.49.21,2.63.3,4.12.26l3.81.42,2.39.58,2.41.79c2.31.76,4.46,1.48,6.57,2.72l3.43,2.02,2.17,1.44,2.47,2.19,1.25,1.35,1.65,1.99,1.17,1.4,1.57,1.49,1.85,2.58,1.55,2.68.8,1.8c.47,1.06,1.06,2.07,1.35,3.17l.72,2.73.83,2.83.55,2.32.23,1.85.25,1.88c.2,1.5.37,2.92.2,4.42Z"/>
</svg>