<?xml version="1.0" encoding="UTF-8"?>
<svg id="_레이어_1" data-name="레이어 1" xmlns="http://www.w3.org/2000/svg" viewBox="0 0 179.45 347.1">
  <path d="M164.3,15.08c-45.35,2.31-90.69,4.63-136.04,6.94-.81.04-1.69.11-2.31.63-.78.66-.89,1.81-.94,2.84-4.59,99.89-9.19,199.78-13.78,299.67,52.47,6.09,106.18,9.01,159,8.43-2.26-106.22-3.67-212.3-5.93-318.52ZM53.57,166.76l.18-7.58.09-4.07.64-6.65.96-6.49.52-4.37.33-3.33c.3-3.03,2.48-5.48,2.9-7.71.61-3.28.58-6.55.48-9.88l-.24-7.58-.04-5,.26-5.09-.07-2.71-.17-10.64.14-2.82.05-2.78-.09-2.94-.05-3.69c-.02-1.53-.12-3-.01-4.51.08-1.09-.07-2.15-.09-3.24l-.11-6.49v-2.79s-.03-5.52-.03-5.52l-.04-3.51c-.02-1.61-.1-3.12-.32-4.68l-.24-2.17s-.08-.07-.6-2.36c-.13-.56-1.05-1.73,20.02-1.61,22.95.13,30.12.96,32.52.03,1.46-.57,3.18-.1,3.93,1.27.39.71.48,1.6-.13,2.67l-.19,2.41-.31,5.98-.27,5.85c-.13,2.83-.18,5.66-.15,8.49l.06,5c-.14,2.82-.04,5.49,0,8.31l.12,7.51.13,8.76-.15,2.95-.26,11.08-.03,6.47.03,6.43.27,3.2.95,6.32c.16,1.06.4,1.79.79,2.86l.76,2.12,1.35,3.84c.39,1.11.42,2.59.62,3.8l.39,2.35.04,4.85-.16,7.42-.24,5.7.15,2.92.16,3.66c.03.72-.37,1.97-1.21,1.88-1.44-.55-2.78-.58-4.34-.35l-2.41.35-1.4-.08-2.62.07-3.33.1h-4.44s-2.95-.04-2.95-.04l-2.81-.05-6.63-.32-2.01.17-4.45.13-2.95.17-5.01.05-2.57.06c-.65.02-1.15.08-1.76-.08-.59-.16-1.15-.1-1.75.09-.92.28-2-.01-2.93.06-1.34.1-2.57.23-3.94.05-1.54.3-3.22.39-4.72.14-1-1.45-.64-2.9-.6-4.47ZM157.12,322.82l-1.57-.41-3.15-.96c-1.6-.49-3.21-1.39-4.53-2.41l-3.03-2.34-3.54-3.63-3.76-3.51c-1.24-1.15-2.34-2.53-3.19-3.97l-1.37-2.34-1.4-2.67-3.45-9.48-2.73-10.74-3.02-14.36-.39-2.05-3.1-16.84-.48-1.71c-.02-.06-.19-.26-.23-.31s-.25.22-.26.27l-.26,1.42c-.49,2.68-.16,5.25.04,7.94l1.72,12.24,2.09,12.23,2.43,13.07,1.98,9.15,3.1,11.9,1.33,3.85c.39,1.14,1.15,2.05,1.39,3.33-.94.38-1.86.2-2.8-.14-2.67-.98-5.39-1.67-8.27-1.74-.84-.02-1.43-.27-1.87-1l-2.38-3.92-6.75-11.31c-4.25-8.12-6.44-15.88-7.8-24.93l-1.55-10.38-1.07-9-.74-4.96-.48-3.34c-.03-.21-.47-.55-.65-.59-.21-.04-.56.11-.91.3-.59,2.6-.65,5.16-.45,7.84l.46,6.1,1.29,9.96,1.5,16.96.78,7.71.32,2.88,1.46,8.87,1.17,3.74-3.24-.34-3.24-.65-4.84-.69c-.99-.14-2.26.4-3.06-.51l-1.62-1.84c-2.54-3.43-4.35-7.23-5.81-11.2l-.85-2.3c-1.52-4.13-3.06-8.08-3.85-12.43l-3.05-16.82-.96-10.17-.52-5.18-.3-3.45-.56-.92-.24.08c-.48,1.59-.67,3.12-.78,4.7l-.21,3.24v2.64s-.02,4.57-.02,4.57l.35,5.04.26,2.89.16,5.98.19,4.78.35,5.36.75,14.62.52,4.07c.03.23-.31.71-.54.73-1.27.11-2.33-.62-3.34-1.24-.69-.42-1.25-.78-1.74-1.44l-.24-.31c-.13-.17-.79,1.52-.49,3.24-.32.46-1.22.22-1.82.02-.43-.14-1.26-.2-1.51-.49-.41-.47-.78-.92-1.29-1.16-.75-.35-1.19-.87-1.67-1.5l-1.52-1.99-.92-1.66-2.22-4.8-1.3-3.51-1.79-6.22-.84-3.73-1.3-6.85-.37-4.59c-.22-2.74-.62-5.46-.21-8.21l.57-6.65.34-5.99.37-4.34.71-6.03c.02-.18-.23-.65-.39-.72-.93-.41-2.14,4.46-2.48,6.52l-1.58,9.53-1.19,9.61-.26,3.34-.95,7.9-1.46,9.82c-.13.84-.14,1.56-.17,2.43l-.1,3.49v1.94s.34,3.39.34,3.39l.29,2.13c.03.22-.1.63-.27.59l-1.71-.21c-2.29-.28-3.33-1.2-4.62-.52-.81-.33-1.56-1.21-1.97-2.02l-1.67-3.35c-1.04-2.08-1.41-4.39-1.96-6.7l-.7-4.32-.46-4.21-.29-3.51-.25-5.84c-.31-7.25.4-14.36,1.61-21.53l1.77-10.45c.58-3.41,1.45-6.65,1.84-10.09.18-1.62.54-3.05,1-4.6l2.55-8.56c3.36-11.28,6.86-19.15,11.99-29.54l1.55-3.13.78-1.22c.31-.49,1.03-.53,1.45-.15,1.03.94,2.33,1.43,3.73,1.48l4.68.19c.31.01.81.14,1.01.3.23.19.36.9.27,1.23l-3.13,12.02-3,12.53c-.8,3.37-1.15,6.73-1.35,10.19-.05.9-.07,1.7.28,2.53l2.24-6.22,2.62-8.3,3.23-9.67.54-1.51,2.01-5.03,3.06-6.87c.37-.83,1.12-.81,1.93-.67l2.25.38,3.13.55c.22.06.38.6.32.85-.66,2.51-1,4.95-1.17,7.53l-.33,4.97-.19,7.43-.07,7.73.1,5.57c.05,2.79.18,5.5.67,8.25.13.76.35,1.33.79,2.17.17-.79.25-1.32.28-1.99l.22-5.87.2-3.51.94-10.19.53-5.04,1.07-7.27,1.81-7.94.71-2.1c.28-.82,4.35-.95,6.3-.26l.23,1.53,1.03,5.17,1.42,10.77,1.53,12.81,1.53,12.16.63,3.83.71,2.29c.39-2.92.17-5.67.11-8.53l-.13-5.74-.58-12.56-.65-11.96-.04-6.32.18-2.32c.01-.18.13-.62.2-.78.09-.2.66-.2.85-.33.63-.43,1.19-.63,1.93-.68l2.39-.18c.85-.06,1.9.01,2.38.8.51.84.54,1.93.81,2.88l2.39,8.73.89,3.55,1.28,4.62,2.34,8.54,1.14,4.41.89,3.61c.03.11.29.39.36.46.52.56.6-2.77.44-5.04l-.21-2.98-1.36-10.9-1.1-6.52-.89-4.49-.99-5.3c-.12-.66-.55-1.73.03-2.3.51-.49,1.62-.31,2.32-.37l1.82-.16c1.37.23,2.58.02,3.54-1.04l1.43-1.6c.73.91,1.33,2.02,1.86,3.15l1.89,4,1.12,2.4,1.28,2.59,1.91,3.81,1.35,2.89.87,1.95,1.87,4.26c1.5,3.43,2.61,6.95,3.31,10.64l1.19,6.25c1,5.28,1.19,10.46,1.58,15.82l1.51,20.93.19,3.35.39,2.78.91,5.92,1.14,6.09.95,3.87.66,2.36,1.26,4.24,2.09,6.77,4.12,12.16c1.1,3.25,2.24,6.31,3.77,9.37l2.21,4.43,1.83,3.82c.15.31-.37,1.18-.7,1.09Z"/>
</svg>