<?xml version="1.0" encoding="UTF-8"?>
<svg id="_레이어_1" data-name="레이어 1" xmlns="http://www.w3.org/2000/svg" viewBox="0 0 232.15 449.01">
  <defs>
    <style>
      .cls-1 {
        fill: #938d82;
      }
    </style>
  </defs>
  <path class="cls-1" d="M214.53,5c-62.46,3.19-124.91,6.37-187.37,9.56-1.12.06-2.33.15-3.18.87-1.08.91-1.22,2.5-1.29,3.91C16.37,156.92,10.04,294.5,3.71,432.08c72.27,8.38,146.24,12.4,218.99,11.61-3.12-146.3-5.05-292.39-8.17-438.69ZM62.02,213.91l.24-10.44.12-5.61.88-9.16,1.32-8.94.72-6.02.46-4.59c.42-4.18,3.42-7.54,3.99-10.61.84-4.52.8-9.01.66-13.6l-.33-10.44-.06-6.88.36-7.01-.09-3.73-.23-14.66.2-3.88.08-3.83-.13-4.05-.06-5.09c-.03-2.1-.16-4.14-.01-6.21.11-1.5-.1-2.96-.12-4.46l-.15-8.94-.02-3.84-.02-7.6-.06-4.84c-.03-2.21-.13-4.29-.44-6.44l-.34-2.99s-.11-.1-.82-3.25c-.18-.78-1.45-2.39,27.57-2.22,31.61.18,41.48,1.33,44.79.04,2-.78,4.37-.14,5.41,1.75.54.98.67,2.2-.17,3.68l-.27,3.32-.43,8.24-.38,8.05c-.18,3.9-.25,7.8-.2,11.7l.09,6.89c-.19,3.89-.06,7.56,0,11.45l.16,10.35.18,12.06-.21,4.07-.35,15.27-.04,8.91.04,8.85.37,4.41,1.3,8.7c.22,1.46.56,2.47,1.08,3.94l1.04,2.92,1.85,5.3c.54,1.53.58,3.57.86,5.24l.54,3.24.05,6.68-.22,10.22-.33,7.85.2,4.02.22,5.05c.04.99-.5,2.72-1.66,2.59-1.98-.76-3.83-.8-5.98-.48l-3.32.49-1.93-.11-3.6.1-4.58.13h-6.12s-4.07-.05-4.07-.05l-3.87-.07-9.14-.44-2.77.24-6.13.18-4.07.24-6.9.07-3.54.08c-.9.02-1.58.11-2.43-.11-.81-.22-1.59-.13-2.41.12-1.27.39-2.75-.02-4.04.08-1.85.14-3.54.32-5.43.07-2.12.41-4.43.54-6.5.19-1.38-1.99-.88-3.99-.83-6.15ZM204.63,428.86l-2.16-.56-4.34-1.32c-2.21-.67-4.42-1.92-6.23-3.32l-4.17-3.23-4.88-4.99-5.18-4.83c-1.7-1.58-3.23-3.48-4.39-5.47l-1.89-3.22-1.92-3.68-4.75-13.06-3.76-14.79-4.17-19.78-.54-2.82-4.26-23.2-.67-2.36c-.02-.08-.26-.36-.31-.43s-.34.3-.35.38l-.36,1.95c-.67,3.68-.22,7.23.05,10.94l2.36,16.85,2.88,16.84,3.35,18,2.72,12.6,4.27,16.4,1.84,5.3c.54,1.57,1.59,2.82,1.92,4.59-1.29.52-2.57.28-3.85-.19-3.68-1.36-7.43-2.31-11.39-2.39-1.15-.03-1.97-.38-2.58-1.38l-3.27-5.4-9.3-15.58c-5.85-11.19-8.87-21.87-10.74-34.34l-2.14-14.29-1.47-12.4-1.03-6.83-.66-4.6c-.04-.29-.65-.76-.89-.81-.29-.06-.78.15-1.25.41-.81,3.57-.9,7.1-.62,10.8l.64,8.4,1.78,13.72,2.07,23.36,1.07,10.62.44,3.97,2.01,12.21,1.62,5.15-4.46-.47-4.47-.9-6.67-.95c-1.36-.19-3.12.54-4.22-.71l-2.23-2.53c-3.49-4.73-5.99-9.96-8.01-15.42l-1.17-3.17c-2.1-5.68-4.22-11.12-5.3-17.12l-4.2-23.17-1.33-14.01-.72-7.13-.41-4.76-.78-1.27-.33.11c-.66,2.18-.93,4.29-1.07,6.48l-.28,4.46.02,3.63-.04,6.3.48,6.94.35,3.97.22,8.24.26,6.59.48,7.38,1.03,20.14.71,5.61c.04.32-.43.98-.74,1-1.75.15-3.21-.86-4.6-1.71-.95-.58-1.72-1.08-2.4-1.98l-.33-.43c-.18-.23-1.09,2.09-.68,4.46-.44.64-1.68.31-2.51.03-.59-.2-1.73-.27-2.08-.68-.56-.65-1.07-1.27-1.77-1.6-1.03-.48-1.64-1.2-2.3-2.07l-2.1-2.75-1.26-2.28-3.06-6.61-1.79-4.84-2.46-8.56-1.15-5.14-1.8-9.43-.52-6.32c-.31-3.77-.85-7.53-.29-11.31l.79-9.16.47-8.25.51-5.98.97-8.31c.03-.24-.31-.9-.53-1-1.28-.57-2.95,6.14-3.42,8.99l-2.18,13.13-1.64,13.24-.35,4.6-1.31,10.88-2.01,13.53c-.17,1.16-.2,2.15-.23,3.35l-.14,4.81v2.67s.47,4.68.47,4.68l.4,2.94c.04.3-.13.87-.37.82l-2.35-.29c-3.16-.39-4.59-1.66-6.37-.71-1.12-.46-2.15-1.66-2.71-2.78l-2.3-4.61c-1.43-2.86-1.95-6.05-2.69-9.22l-.96-5.95-.63-5.8-.39-4.83-.34-8.05c-.43-9.98.55-19.78,2.22-29.65l2.44-14.39c.8-4.69,2-9.16,2.54-13.9.25-2.23.75-4.21,1.38-6.33l3.51-11.8c4.62-15.53,9.44-26.37,16.51-40.69l2.13-4.31,1.07-1.68c.43-.67,1.42-.74,2-.21,1.43,1.29,3.21,1.97,5.14,2.04l6.44.26c.43.02,1.12.19,1.4.42.32.26.5,1.23.38,1.7l-4.31,16.56-4.13,17.26c-1.11,4.64-1.59,9.27-1.87,14.04-.07,1.24-.09,2.34.38,3.48l3.09-8.57,3.62-11.43,4.45-13.32.74-2.08,2.76-6.92,4.21-9.46c.51-1.15,1.54-1.12,2.66-.93l3.1.53,4.31.76c.3.08.53.83.44,1.18-.9,3.46-1.38,6.82-1.62,10.38l-.46,6.85-.26,10.24-.1,10.64.14,7.67c.07,3.84.25,7.57.92,11.37.18,1.04.48,1.84,1.09,2.99.24-1.09.35-1.82.38-2.74l.3-8.09.27-4.84,1.29-14.04.73-6.94,1.48-10.01,2.5-10.94.98-2.89c.38-1.14,5.98-1.3,8.68-.36l.32,2.1,1.42,7.12,1.96,14.83,2.11,17.64,2.11,16.75.87,5.28.98,3.15c.54-4.02.24-7.81.15-11.75l-.17-7.91-.8-17.31-.89-16.47-.06-8.71.25-3.2c.02-.25.17-.85.28-1.08.13-.27.91-.28,1.17-.45.86-.59,1.63-.86,2.66-.94l3.29-.25c1.16-.09,2.62.01,3.28,1.11.7,1.16.75,2.65,1.11,3.97l3.29,12.02,1.23,4.89,1.77,6.36,3.23,11.77,1.58,6.08,1.23,4.98c.04.16.41.54.5.64.72.77.83-3.81.61-6.94l-.29-4.1-1.88-15.01-1.52-8.98-1.22-6.19-1.36-7.3c-.17-.91-.76-2.38.04-3.17.7-.68,2.24-.42,3.2-.51l2.5-.22c1.89.32,3.56.03,4.87-1.44l1.98-2.2c1,1.25,1.83,2.79,2.56,4.34l2.61,5.5,1.55,3.31,1.77,3.57,2.64,5.25,1.86,3.98,1.19,2.68,2.57,5.87c2.06,4.72,3.59,9.57,4.56,14.66l1.63,8.61c1.38,7.27,1.64,14.4,2.17,21.79l2.08,28.82.26,4.62.54,3.82,1.25,8.15,1.58,8.39,1.3,5.33.92,3.25,1.74,5.84,2.87,9.32,5.67,16.75c1.52,4.48,3.09,8.69,5.19,12.91l3.04,6.11,2.52,5.26c.21.43-.5,1.63-.97,1.51Z"/>
</svg>