<?xml version="1.0" encoding="UTF-8"?>
<svg id="_레이어_1" data-name="레이어 1" xmlns="http://www.w3.org/2000/svg" viewBox="0 0 425.2 425.2">
  <path d="M382.7,81.18l-2.91,2.25-7.06,5.78-6.87,5.69c-3.33,2.75-6.57,5.6-9.73,8.55l-5.57,5.2c-3.32,2.74-6.23,5.58-9.37,8.53l-8.35,7.84-9.74,9.13-3.49,2.86-12.76,11.08-7.32,6.6-7.22,6.62-3.33,3.58-6.15,7.55c-1.03,1.27-1.6,2.29-2.42,3.82l-1.62,3.03-2.95,5.46c-.85,1.58-2.49,3.13-3.65,4.6l-2.25,2.85-5.43,5.01-8.53,7.43-6.67,5.58-3.14,3.16-3.96,3.94c-.78.77-2.6,1.61-3.36.57-.86-2.18-2.2-3.73-4.06-5.26l-2.87-2.36-1.35-1.67-2.77-2.87-3.52-3.65-4.56-5.01-2.99-3.36-2.83-3.22-6.44-7.81-2.25-2.09-4.71-4.88-3.22-3.15-5.2-5.6-2.7-2.83c-.69-.72-1.27-1.21-1.71-2.07-.43-.83-1.08-1.4-1.9-1.89-1.26-.75-2.04-2.27-3.07-3.24-1.49-1.41-2.9-2.66-4.1-4.4-1.92-1.43-3.74-3.23-4.99-5.18.6-2.62,2.61-3.69,4.42-5.26l8.73-7.58,4.68-4.08,8.15-6.1,8.31-5.58,5.46-3.89,4.1-3.05c3.73-2.77,8.72-2.82,11.66-4.64,4.33-2.68,7.98-6.06,11.63-9.59l8.3-8.04,5.59-5.18,6-4.92,2.99-2.85,11.83-11.11,3.33-2.73,3.19-2.79,3.22-3.12,4.12-3.84c1.7-1.59,3.27-3.21,5.07-4.64,1.31-1.03,2.35-2.28,3.56-3.42l7.21-6.78,3.13-2.88,6.21-5.68,3.92-3.65c1.79-1.67,3.41-3.31,4.94-5.16l2.2-2.51s0-.16,2.04-3.09c.51-.72.88-2.96,22.35,20.91,23.4,26.01,29.81,34.94,33.33,36.69,2.13,1.06,3.37,3.48,2.6,5.73-.4,1.17-1.31,2.19-3.14,2.6Z"/>
  <path d="M43.5,261.36l3.35-4.77,6.38-8.49,4.79-5.13c2.86-3.06,5.52-6.3,9.04-8.66l8.09-6.18,7.1-5.76,5.28-4.03,7.52-5.39c.22-.16.5-.92.42-1.18-.48-1.47-7.22,2.16-9.9,3.89l-12.37,8-12.05,8.52-4.02,3.13-9.87,7.03-12.57,8.43c-1.08.72-1.9,1.44-2.91,2.31l-4.04,3.47-2.19,2-3.48,3.86-2.11,2.52c-.22.26-.81.54-.95.3l-1.51-2.14c-2.03-2.88-2.06-4.99-4.16-5.74-.46-1.26-.24-3,.26-4.29l2.06-5.32c1.28-3.3,3.5-6.1,5.54-9.07l4.16-5.22,4.27-4.83,3.66-3.92,6.33-6.27c7.85-7.78,16.6-14.29,25.92-20.27l13.59-8.72c4.43-2.84,8.99-5.19,13.27-8.28,2.01-1.45,4-2.52,6.21-3.58l12.27-5.91c16.15-7.78,28.62-11.91,45.6-16.79l5.12-1.47,2.17-.37c.87-.15,1.66.61,1.66,1.48,0,2.13.78,4.09,2.16,5.73l4.59,5.47c.31.37.68,1.06.7,1.46.02.45-.64,1.33-1.11,1.57l-16.76,8.81-17.2,9.48c-4.62,2.55-8.77,5.61-12.88,8.93-1.07.86-1.98,1.66-2.57,2.91l9.31-3.85,12.05-5.55,14.22-6.28,2.26-.94,7.72-2.89,10.88-3.6c1.32-.44,2.06.43,2.74,1.48l1.88,2.93,2.59,4.1c.16.31-.28,1.05-.64,1.23-3.51,1.84-6.6,3.95-9.7,6.41l-5.95,4.73-8.57,7.41-8.79,7.84-6.18,5.83c-3.09,2.92-6.01,5.84-8.62,9.22-.71.93-1.14,1.76-1.64,3.11,1.07-.62,1.75-1.07,2.53-1.73l6.85-5.78,4.16-3.38,12.45-9.4,6.22-4.57,9.3-6.24,10.81-6.1,3.1-1.35c1.22-.53,5.52,3.93,6.76,6.84l-1.48,1.82-4.77,6.47-10.68,12.65-12.86,14.87-12.14,14.21-3.67,4.64-1.85,3.15c3.69-2.56,6.57-5.62,9.73-8.63l6.34-6.03,13.57-13.54,12.82-13,7.08-6.54,2.8-2.18c.22-.17.83-.49,1.09-.58.32-.1.9.54,1.24.62,1.12.27,1.92.7,2.75,1.48l2.66,2.51c.94.89,1.94,2.15,1.54,3.51-.42,1.44-1.61,2.59-2.42,3.87l-7.39,11.64-3.08,4.64-3.89,6.18-7.23,11.41-3.8,5.82-3.16,4.71c-.1.15-.14.73-.15.89-.1,1.17,3.74-2.16,6.13-4.67l3.14-3.3,10.89-12.72,6.22-7.93,4.15-5.61,4.96-6.55c.62-.82,1.38-2.4,2.62-2.32,1.08.07,2.01,1.52,2.79,2.24l2.05,1.88c1.15,1.78,2.63,2.94,4.81,2.92l3.28-.02c-.28,1.75-.92,3.57-1.64,5.33l-2.56,6.23-1.55,3.73-1.61,4.1-2.33,6.07-1.87,4.49-1.31,2.97-2.89,6.48c-2.33,5.21-5.16,10.07-8.61,14.65l-5.83,7.75c-4.92,6.54-10.57,12.07-16.22,18.01l-22.04,23.17-3.59,3.65-2.73,3.29-5.74,7.09-5.69,7.54-3.39,5.03-1.98,3.17-3.48,5.77-5.49,9.3-9.49,17.11c-2.54,4.58-4.81,9-6.7,13.86l-2.73,7.04-2.43,5.98c-.2.49-1.71.8-1.96.33l-1.15-2.19-2.15-4.54c-1.09-2.31-1.72-5.05-1.93-7.57l-.47-5.82.45-7.71.09-7.84c.03-2.57.44-5.23,1.21-7.67l1.23-3.94,1.58-4.31,7.15-13.61,9.3-14.09,13.09-18.14,1.91-2.54,15.81-20.77,1.43-2.3c.05-.08.1-.49.12-.57s-.5-.06-.57,0l-1.86,1.16c-3.51,2.2-6.08,5.2-8.91,8.19l-12.03,14.49-11.64,14.9-12.24,16.14-8.29,11.61-10.24,15.71-2.97,5.45c-.88,1.61-1.12,3.4-2.33,4.99-1.39-.67-2.14-1.89-2.71-3.3-1.63-4.02-3.65-7.8-6.53-11.11-.84-.96-1.16-1.9-.79-3.14l1.98-6.7,5.83-19.22c4.8-13.12,11.3-23.55,20.11-34.37l10.1-12.4,9.05-10.44,4.83-5.93,3.27-3.97c.2-.25.14-1.1,0-1.34-.17-.29-.7-.53-1.27-.72-3.53,2-6.49,4.55-9.31,7.54l-6.4,6.78-9.9,11.67-17.58,19.09-7.89,8.79-2.93,3.32-8.5,10.74-3.01,5.16-2.94-4-2.59-4.33-4.19-6.16c-.85-1.26-2.77-2.15-2.57-3.98l.41-3.71c1.27-6.38,3.69-12.32,6.66-18.04l1.72-3.32c3.09-5.95,5.96-11.74,10.06-17.09l15.84-20.69,10.48-11.52,5.3-5.9,3.59-3.88.46-1.58-.34-.18c-2.28,1.09-4.21,2.44-6.1,3.95l-3.87,3.09-2.96,2.72-5.18,4.66-5.32,5.57-2.99,3.25-6.58,6.32-5.2,5.12-5.68,5.89-15.71,15.84-4.06,4.76c-.23.27-1.12.37-1.37.14-1.42-1.32-1.69-3.27-2.03-5.04-.23-1.21-.4-2.21-.17-3.44l.11-.59c.06-.32-2.52.66-4.16,2.76-.85.12-1.5-1.15-1.89-2.03-.28-.63-1.07-1.62-.99-2.2.12-.94.25-1.82,0-2.65-.37-1.2-.24-2.24-.02-3.42l.69-3.76.93-2.73,3.13-7.43,2.62-5.07,5.17-8.39Z"/>
</svg>