<?xml version="1.0" encoding="UTF-8"?>
<svg id="_레이어_1" data-name="레이어 1" xmlns="http://www.w3.org/2000/svg" viewBox="0 0 250.13 323.82">
  <path d="M234.77,26.31c-3.08-5.83-11.91-9.25-18.02-6.77-56.59-3.42-114.85-6.02-171.45-9.44-1.95-.12-3.98-.22-5.78.53-3.96,1.66-5.19,6.56-5.9,10.79-14.72,88.6-19.14,178.91-13.15,268.52.12,1.85.34,3.88,1.69,5.14,1,.93,2.42,1.24,3.77,1.5,62.17,12.08,125.59,17.68,188.91,16.67,16.97-53.21,20.48-109.69,21.89-165.52.86-34.03,1-68.06,1.13-102.1.03-6.59-.02-13.49-3.1-19.32ZM219.31,184.25l-.83,17.67-.83,11.42-.99,11.59c-.38,4.45-.9,8.69-.97,13.19-.09,6.04-.7,11.86-2.09,17.72-2.67,11.28-6.96,22.8-15.01,31.25-7.04,7.38-19.38,10.59-29.4,11.34l-8.32.16-3.69.17-4.51.2-11.78.87-6.01.43-16.77.19h-8.92s-5.97-.19-5.97-.19l-4.27-.22-3.69-.21-3.91-.21c-11.28-.59-24.52-2.24-34.53-7.63-8.92-4.8-14.62-12.04-18.33-21.4-1.97-4.96-3.3-9.97-4.16-15.27l-3.38-20.93c-1.01-6.24-1.51-12.27-1.58-18.59-.07-6.39-.81-12.47-1.37-18.83-.61-6.88-.81-13.57-.55-20.44l.1-2.7.31-8.4c.23-6.16.24-12.04.17-18.22-.09-7.59.77-14.94,1.14-22.49l.34-6.78c.25-4.98.07-9.76.72-14.76l2.87-22.09c.95-7.32,2.67-14.25,5.27-21.17,2.54-6.75,6.37-12.9,11.4-18.03,2.46-2.51,5.33-4.22,8.46-5.72,11.12-5.3,23.24-5.88,35.38-6.59,2.36-.14,4.6-.11,6.95,0,2.98.15,5.89.16,8.87.03l9.37-.42c4.99-.23,9.93-.18,14.93,0l5.72.2,4.13.21,7.89.44,10.75.15c13.13.67,27.94,3.56,38.18,12.17,5.94,4.99,9.49,13.26,11.16,20.82,2.13,9.63,3.39,19.3,3.66,29.17.15,5.45.44,10.58.87,16l1.6,19.88,1.23,21.03.34,10.66.11,4.52c.17,6.68.25,13.14-.06,19.83Z"/>
  <path d="M195.58,131.45c-.16-5.64-.6-10.99-1.13-16.59l-1.31-13.89c-.96-7.96-2.46-15.67-4.91-23.29-2.46-7.66-6.19-13.64-13.31-17.66-5.05-2.85-10.62-4.58-16.43-5.02l-9.09-.68-4.31-.2-3.49-.06-11.86-.98-5.95-.06c-9.23-.8-15.9.99-24.35,1.23-7.3.21-15.17,1.14-21.96,3.65-3.62,1.34-7.09,2.83-9.91,5.43l-1.92,1.77c-2.48,2.54-4.18,5.54-5.52,8.82-1.39,3.42-2.45,6.77-3.04,10.49-1.79,11.33-3.22,22.56-4.23,34.01l-1.21,24.63-.17,4.58-.19,10.44c-.09,4.84-.19,9.49.03,14.32l.32,7.02.88,23.48c.2,5.39.7,10.45,1.46,15.79l3.47,24.34c1.21,8.47,4.26,16.99,10.44,22.92,6.4,6.15,15.08,8.88,23.67,10.55,4.58.89,8.99,1.76,13.65,1.86l5.08.11,6.65.19,5.64.12,7.36-.56,12.89-1.45,7.59-.17c7.93-.18,14.11-1.71,21.16-5.21,6.74-3.35,11.89-8.56,15.29-15.25,4.9-9.67,6.34-21.31,7.02-32.15l1.28-20.24.99-23.16c.37-8.56.34-16.81.09-25.38l-.69-23.74Z"/>
</svg>