<?xml version="1.0" encoding="UTF-8"?>
<svg id="_레이어_1" data-name="레이어 1" xmlns="http://www.w3.org/2000/svg" viewBox="0 0 217.81 228.16">
  <path d="M140.48,186.87c-.41.28-.65.64-1.13.83-.21.09-.43.64-.24.72l.92.42c.72-.26,1.38-.62,2.01-1.03.47.26,1,.37,1.53.34.79-.05,1.46-.34,1.54-1.23-1.34-.9-3.58-.77-4.61-.06Z"/>
  <path d="M202.08,101.96c-1.17-25.63-2.34-51.27-3.52-76.9-.2-4.47-.48-9.17-2.87-12.95-2.39-3.78-9.2-5.59-13.02-3.27v-2c-51.33.6-104.2,3.76-155.54,4.37-2.07.02-4.26.08-6.01,1.19-2.68,1.7-3.41,5.23-3.84,8.37-3,21.97-3.05,44.22-3.09,66.39-.08,42.28-.17,84.57-.25,126.85,19.79,7.46,41.33,8.79,62.48,8.91,39.03.23,77.97-3.37,116.84-6.96,2.36-.22,4.87-.49,6.73-1.97,2.67-2.12,3.11-5.95,3.3-9.35,1.92-34.19.36-68.46-1.21-102.67ZM189.91,170.02c-.18,1.18-.16,2.4-.69,3.5-.73,1.52.37,2.16-.07,3.12-.12.27-.5.66-.86.73l-1.45.31c-.73.16-1.26.42-1.99.18-.68-.22-3.84.21-3.93,1.42-.68.41-1.62.38-2.41.23-1.26-.25-2.5,1.16-4.62.93-.65.31-1.36.49-2.1.58-.88.43-1.75.62-2.7.84-1.32.31-2.46.51-3.83.5-.43,0-1.3.43-1.7.29-1-.33-1.65-.13-2.35.6-.38.39-1.4.26-1.9.3-.75.06-1.04.77-1.38,1.36l-1.3.62c-.72.34-1.45.3-2.25.18l-1.91,1.08c-.19.11-.58.46-.78.44-.38-.04-1.04-.07-1.33.05l-1.38.61-2.11,1.08c-.47.24-1.33.1-1.87.55-.67.55-1.4-.23-2.29.41-1.32.95-1.95-.98-3.38.34-.25.23-.88.13-1.29.07-.55-.09-1.09.27-1.63.51-.4.18-.97.19-1.5.29-.68.13-1.38,1.38-3.18,1.65-.82.09-1.92-.06-2.55.22-.61.28-.87.38-1.47.43-1.55.13-2.95.19-4.52-.25l-2.03.37-.49,1.06-.65-.52-3.77,1.26c-.08.4-.17.82-.38.91-.23.11-.68.03-.99-.11-.76-.34-1.08,1.66-3.79.56-1.36.66-2.2-.8-3.98.5-.47.14-1.35-.02-1.97-.09-.6-.07-1.23.62-1.81.73-1.29.25-2.68.46-3.99.43-.92-.02-1.83-.5-2.82-.3l-2.86.59c-1.61-.28-2.93,0-4.41.73-.65.32-1.73-.05-2.45.04l-2.06.25-2.24-.57c-.66-.17-1.69-.05-2.36.11-1.11.28-2.11.79-3.27.26l-1.61.44c-1.95.53-2.74,0-4.4.18-1.64.58-3.13,1.03-4.85,1.2-.88-.39-1.78-.31-2.67-.04-.93.37-1.76.42-2.75.34l-2.07.46c-.75.17-1.4.01-2.1.23-.68.21-1.52.55-2.18.59l-1.78.1c-.4.02-.27-.68-.28-.98-.03-.61-.39-1.19-.66-1.79-.15-.33-.06-.86-.08-1.25l-.11-1.97c-.05-.9-.95-1.64-.78-2.72l.24-1.51c.25-1.61.17-3.09-.73-4.52-.23-.37-.05-.93.05-1.3l.31-1.16c.08-.3-.26-.81-.53-1.02,0-.63-.18-1.23-.58-1.81l.03-1.4.08-1.44c.17-.59.14-1.2-.14-1.77.29-.92.03-1.63-.29-2.48-.14-.35-.23-.97-.47-1.34-.4-.62-.34-1.13-.17-1.79.09-1.36-1.11-2-.55-3.2l-.4-.9c.36-.79.11-1.54-.38-2.24.34-.61.33-1.24-.2-1.72-.3-.37-.76-1.1-.64-1.57.24-1,.58-2.01.07-2.93-.56-.99-.69-1.94-.49-3.08.12-.71-.38-1.48-.73-2.06-.86-1.47.79-2.8.43-3.78l-.98-2.62-.22-1.14.06-1.71c.03-.93-.8-1.79-.96-2.64l-.3-1.56-.35-1.9c-.08-.45-.3-.96-.26-1.39.08-.86-.02-1.5-.34-2.3l.21-1.38-1.1-2.9c-.15-.4.38-1.25.33-1.62-.19-1.48-1.43-3.32-1.44-5.2,0-.59-.05-1.03-.36-1.56l.06-1.15-.89-2.76.37-1.99.04-1.68c.02-.93-.43-2-1.04-2.76-.46-.57-.55-1.15-.68-1.85-.09-.48-.12-.83-.05-1.35.19-1.35-.58-2.61-1.07-3.82.09-.68.19-1.49-.04-2.17-.32-.94-.37-1.76-.33-2.78.02-.6-.49-1.21-.7-1.78l-.43-1.18c-.24-.67-.33-1.13-.09-1.78.77-2.08-1.49-3.36-.84-4.86.69-1.6-1.02-1.87-.36-3.67.23-.63.08-1.3-.04-1.91-.15-.74-.27-1.27-.95-1.67l-.56-1.2c-.56-1.21.74-1.95.14-4.2l-.42-1.56-.18-1.47-.25-1.28-.23-1.58c-.16-1.12-.69-2.29-.45-3.45.17-.82.09-1.4-.4-2.06-.45-.61-.26-1.5-.06-2.15.31-.97.96-1.56,2.06-1.52.69.03.93-.24,1.35-.79.37-.49,2.07-.44,3.9-1.33.49-.24.99-.39,1.49-.5l1.12-.56,2.95-.8,2-.98c1.03.48,2.15.01,2.67-1.02,1.79-.96,3.73-1.54,5.74-1.86l1.26-.7c.41-.85,1.11-1.3,2.09-1.69,1.17.31,2.39.14,3.44-.55l2.07-.67c.53-.17.95-.26,1.55-.13l1-.67c1.29.06,2.07-1.01,2.79-1.87,1.1.06,2.23.1,3.23-.62.67-.48,1.73-.41,2.53-.46.69-.05,1.04.04,1.71.32.65.27,1.62-1.19,3.72-.98l1.07-.97,1.48-.27c.72-.13,1.25-.29,1.61-1.05.24-.5.78-1.01,1.33-1.18l1.51-.47c.55-.17,1.22-.82,1.75-1,.87-.31,1.41-.68,2.27-1.04l1.32-.54c.45-.18.65-.42.93-.92l1.09.08c.49-.17.81-.13,1.12.32l1.23-.22c.47-.08.84-.26,1.01-.76.36-1.1,1.97-.19,2.68-1.81l1.32.16c1.02.31,1.82.13,2.8-.13l2.43-.65c.4-.11.53-.16.99.02,1.75-.36,1.55-1.81,2.73-1.95l1.16-.13c.28-.03.93-.21,1.18-.35l.85-.85.48.42c.25.21.54-1.01.78-1.24.44-.41,1.91.39,2.54-1.07.13-.31.59-.38.94-.19l1.54-1.5c-.13-.12-.44-.42-.35-.49l.4-.34c.49-.42.93-.44,1.46,0l1.27-.53,1.41-.1c1.62.98,3.52.91,5.25.09,1.43-.67,3.8.88,5.16-.29.53-.45.86-1.16,1.91-.89,1.05.27,3.26.12,3.89-.42,1.97-1.69,2.88.66,4.93-.86.68-.42,1.39-.31,2.15-.1.86-.32,1.81-.72,2.7-.74.73-.01,1.24-.05,1.77-.57.43-.36.98-.54,1.54-.53.85-.49,1.75-.72,2.72-1l1.78-.51c.94,0,1.66.09,2.34-.64.82-.89,2.24.13,2.85-1.41l3.08-.61c.21-.04.69-.26.8-.1l.52.72c.91,1.27.22,1.61,1.17,1.97l-.14.97c.65.21.98.62.96,1.34-.02.61.31,1.14.42,1.76l.48,2.74.48,2.12.69,1.48.57,1.22c.37.34.76.84.73,1.44-.06,1.23.37,2.14.67,3.3l.72,2.78.2,1.35c.05.36-.06,1.04.19,1.27.53.5.76.9.71,1.61-.03.45.19.78.39,1.18l1,2.02c.44.88.19,1.72-.05,2.58-.22.78.5,1.55.93,2.16.55.79-.41,2.16.83,3.04l.34,1.06c.22.69.47,1.31.56,2.03.25,2.19.79,4.24,1.37,6.38.16.6.31.94.66,1.51.34.56.66,1.59.72,2.26-.08.68-.2,1.31.27,1.82.57.63.34,1.31.51,2.04l.85,3.64.69,2.54.71,2.81-.28,1.77c.79,1.35,1.23,2.64,1.81,4.03l.62,1.48c.47,1.13.98,2.37.73,3.62-.13.67-.28,1.38.19,1.95.79.95.86,2,.56,3.17l-.43,1.7c.07.83.5,1.8.35,2.63-.14.8-.55,1.64-.34,2.42.25.93.39,1.77.4,2.71.2.77.2,1.49-.11,2.28.19.88.56,1.86.52,2.72-.03.78-.1,1.47.1,2.23.2.78.22,1.38-.08,2.17-.16.43.14,1.08.2,1.53l.47,3.21-.26,1.39-.65,3.72-.42,1.67c.48,1.67.66,3.25.73,4.97.05,1.18.67,2.47.51,3.68l-.41,3.15c-.07.54-.25.93.03,1.52.33.71.79,1.49.66,2.34-.05.33-.33.99-.26,1.3.32,1.27.78,2.51.75,3.83,0,.42-.3,1.15-.18,1.5l.31.9c-.74,1.15.68,2.48.42,4.13l-.24,1.48c-.09.56-.29,1.02-.07,1.58.24.6.5,1.4.45,1.97-.03.35-.04.49.08.84l-.79,1.99c.75,1.6.52,3.19.26,4.84Z"/>
</svg>