<?xml version="1.0" encoding="UTF-8"?>
<svg id="_레이어_1" data-name="레이어 1" xmlns="http://www.w3.org/2000/svg" viewBox="0 0 378.5 323.7">
  <path d="M366.48,296.81c-2.48-75.63-5.83-151.28-13.21-226.59-1.68-17.13-3.59-34.37-8.69-50.81-.79-2.54-1.73-5.18-3.75-6.91-2.13-1.82-5.05-2.3-7.83-2.65-18.96-2.4-38.15-2.13-57.27-1.86-82.6,1.16-165.34,2.34-247.49,11.09-3.38.36-7.18.97-9.12,3.77-1.58,2.27-1.4,5.29-1.15,8.05,8.2,91.47,18.02,182.8,29.44,273.92,95.24,6.84,194.66,5.62,290.13,4.21,5.88-.07,15.64-4.08,21.51-4.15,2.04-.02,4.29-.13,5.77-1.53,1.69-1.59,1.73-4.22,1.66-6.54ZM101.64,170c-.5,2.23-.27,4.46-.45,6.7l-.29,3.69-.44,4.96c-.22,2.42-.89,4.74-1.2,7.21-.19,1.44.23,3.33-.17,4.64-.51,1.64-.47,2.68-.62,4.41l-.26,3.14c-.1,1.15-.35,2.02-.3,3.1l.1,2.08.16,2.49v7.54s.18,2.7.18,2.7l-.08,5.46.05,3.28v8.51c-.01.98.24,1.93.36,2.86l.38,2.94.53,7.07c.13,1.69.23,3.5.14,5.16l-.23,4.15-.32,4.91c-.13,1.93-.15,3.72.05,5.67l-.05,3.08c-.02,1.51-.29,3.32-.07,4.77.47,2.98.41,5.72-1.22,8.37-.44.71-.69,1.66-1,2.57-1.55,2.49-4.55,3.52-7.69,3.13l-6.89-.86c-1.98.21-4.19-.45-5.53-1.95l-1.56-1.74-1.21-1.99-1.21-2.63-.52-1.76c-.34-1.14-.3-2.67-.22-3.86l.23-3.32c.04-.58.03-1.65.17-2.19.48-1.94.32-3.53.37-5.48l.15-5.55.46-8.47c.09-1.67.18-3.28-.21-4.9-.26-1.08-.26-2.07-.34-3.2l-.4-5.52.05-2.4c.05-2.26.41-4.4.02-6.68l-.51-3.03c-.27-1.59-.34-3.15-.19-4.78.18-1.93-.1-3.6-.53-5.45l-.14-2.59-.34-8.56.11-5.8.36-5.37c.15-2.24-.03-4.23.33-6.46.2-1.26.2-2.93.08-4.34l-.37-4.32-.04-4.62c-.01-1.56-.04-2.93-.39-4.48-.79-3.47.34-5.64-.72-8.66-.93-2.65.36-5.09-.75-8.09-.58-1.55-.73-3.17-.68-4.83.1-3.27-1.42-5.75-1.59-8.62-.08-1.26-.2-1.93-.61-3.08-.36-1.03-.38-2.58-.43-3.77l-.13-3.09c-.05-1.29-.2-2.27-.64-3.46-.81-2.17-.62-4.51-.68-6.8l-.36-1.82-.46-1.85c-.45-1.83-.09-3.81-.33-5.73l-.32-2.59-.39-5.07-.16-2.66c-.09-1.45.17-2.7.2-4.17l.04-2.16c.03-1.41-.07-2.78.23-4.12.57-2.56,2.36-4.31,4.92-4.76l2.38-1.42c1.3-.78,2.3-1.46,3.95-1.62l2.86-.29c2.32-1.4,4.77-2.11,7.45-1.99l3.69.16c3.15.14,4.17,3.19,8.01,3.97,4.72,2.75,3.35,5.95,4.04,8.98l.53,2.32c.19.83-.25,2.42-.13,3.35.28,2.22.67,4.29.47,6.54l-.21,2.4-.3,2.83c.11,3.28-.1,6.36-.43,9.64-.13,1.23.03,2.42.17,3.6l.49,4.19-.3,2.47v2.68s.22,2.11.22,2.11l.13,3.52c.03.98.21,2.01-.07,2.97-.48,1.61-.09,2.97.23,4.52l.41,1.99c.26,1.28.26,2.89.16,4.14l-.31,3.84.07,2.09.21,3.6.14,4.46c.02.68-.13,1.33-.27,1.97ZM169.25,47.72c-.49,3.14-.96,6.12-.33,9.25-.57,2.12-.26,4.08-.03,6.23.16,1.57-.12,3.3-.18,4.94-.07,1.72-.66,3.31-.98,5.05-.25,1.38-.14,3.05-.05,4.49l.18,2.82c.15,2.33-.1,4.6-.45,6.9l-.4,2.67-.37,2.85c-.3,2.29-.06,4.76-.63,7.01-.64,2.48-.96,4.68-.98,7.22-.12.61-.37,1.63-.39,2.31l-.13,4.04c-.1,3.02-1.08,4.76-1.35,7.17l-.74,6.53c-.17,1.52-.17,3.02-.71,4.51-1.21,3.3.24,7.2-1.57,12.3-.59,1.65-.61,3.08-.42,4.88.08.81-.11,2.02-.23,2.86l-.81,5.76c-.27,1.92-.49,3.79-.35,5.73l.35,5.03-.03,6.06.78,8.33.49,2.23.14,2.29-.33,5.03-.07,2.95-.12,2.69c-.03.73.44,2.01.53,2.83l.28,2.64.34,3.56.73,5.61.23,3.65.94,4.72c1.05,5.3-.64,9.81,1.56,19.31l.46,3.98c.24,2.05.09,3.97-.22,6.01l-.09,4.36c-.03,1.3.17,2.33.29,3.65l.25,2.76.39,5.15c.13,1.72-.1,3.17.14,4.91l.41,2.99.59,5.29c.21,1.91.08,3.56.49,5.45l.09,3.9c.04,1.6.27,2.92-.33,4.42l-.79,1.96c-.5,1.23-.97,2.48-2.47,2.91-.32,1.33-1.66,1.75-2.87,2.13-1.52.48-2.78.26-4.4.26h-4.13c-2.42-.52-4.6-1.01-7.17-.99-1.42.01-2.95-.71-4.33-1.08l-5.96-1.58c-.78-.76-1.81-1.73-2.71-2.25-1.43-.83-1.32-2.12-1.66-3.52l-1.06-4.39-.24-2.42-.08-5.55.33-2.59.25-3.39-.06-3.07v-7.26s.08-1.82.08-1.82l.48-2.61c.1-.56.21-1.66.18-2.26l-.27-4.19.03-2.54.13-2.84v-1.93s-.17-2.71-.17-2.71v-2.61s0-3.58,0-3.58l.14-3.24c.44-2.7.28-5.15-.19-7.83l-.21-2.73.03-2.79c.04-3.5.3-6.73.05-10.19l-.31-4.35c-.68-1.2-.86-2.49-1.03-3.89l-.74-5.84c-.11-.91.24-2.04.4-3.04.15-.98-.31-2.49-.08-3.38l.59-2.3.44-2.55c.37-2.16-.08-4.18-.27-6.35l-.27-2.99c-.53-5.97,1.1-8.49,1.06-10.6l-.09-4.29.05-4.64c.02-1.55.35-3.18.44-4.73.09-1.61-.18-3.13-.37-4.62l-.26-2.04-.27-3.8c-.11-1.54.71-3.33.46-4.85l-.53-3.26c-.1-.6-.45-1.42-.44-2.06l.07-3.32.19-4.28c.08-1.71.16-3.36-.13-5.04-.59-3.35-.15-6.49-.21-9.81l-.06-3.83c-.01-.89-.37-2.02-.2-2.94.35-1.82-.38-3.31-.56-4.95l-.28-2.62c-.11-1.04.22-2.4.3-3.58.1-1.57-.17-3.32-.36-4.95l-.43-3.57c-.26-2.13-.02-4.16-.4-6.37-.87-5.1.5-8.74-.54-13.94l-.2-2.64c-.13-1.71-.23-3.47.13-5.13.37-1.68.44-3.12,0-4.81-.59-2.34.45-3.96.06-4.84-.55-1.26-.34-2.39.84-3.1,1.15-.69-1.43-2.52,4.29-4.23l2.42-.72c1.65-.1,2.78-.67,4.17-1.44,1.88-1.05,4.49-.52,6.63-1.53.88-.42,2.01-.89,2.98-1.06l3.25-.56c2.95.86,4.34-.61,7.95-.13,1.28.17,3.04.16,3.94,1.19,2.11,2.41,4.89.81,6.02,6.15l.58,2.75c.56,2.65.9,5.6.48,8.32ZM252.28,289.63l-.18,2.45c-.09,1.21-.06,2.05-.53,3.17-.32.76-.51,1.87-1,2.5-1.04,1.34-1.95,3.1-3.51,3.77l-3.24,1.37c-1.25.53-3.31.56-4.61.3-4.39-.86-7.2.23-10.91-.49-3.27-.63-6.56-.99-9.86-.53l-3.15.43-3.66.69-4.24-.16-1.82-.19c-1.84.15-3.99.49-5.61-.43l-3.24-1.83-1.69-1.97c-1.02-.58-1.46-1.08-1.9-2.06l-.91-2.03-.89-3.3-.4-2.13-.06-5.03-.14-4.88.52-2.57.63-2.72.14-4.27c.65-2.73.59-5.11.53-7.91l.39-3.26-.63-4.55c-.23-1.68-.54-3.57-.49-5.25l.16-6.29.46-2.69c.5-2.89.93-3.96-.23-7.46l-.2-2.99c-.09-1.29-.52-2.27-.46-3.55l.1-2.03.3-4.99v-1.55c-.03-1.84-.14-3.43.75-5.12.29-.55.16-1.67.23-2.35.14-1.47.18-2.69-.69-4l.31-1.9-.28-2.48c-.2-1.7-.16-2.96-.04-4.68l.26-3.6.53-3.57c.48-3.23-.47-4.98,1.27-10.37.36-1.11.53-1.87.57-3.07l.09-2.59c.51-2.25,1.1-4.24.58-6.5-.87-3.82.78-7.17.37-10.79-.17-1.48-.52-2.85-.11-4.32.51-1.85.78-3.6.68-5.56-.13-2.45.22-5-.46-7.34-.57-1.96-.94-3.7-.76-5.78l.52-6.03.03-5.51-.23-3.47.19-2.55.46-3.77.17-3.16-.15-2.48-.2-2.09c-.37-3.93.89-7.1.34-11.54l-.36-2.87c-.29-2.3.42-4.37.99-6.56l.26-3.13,1.02-.99c.94-1.93,2.5-2.99,4.48-3.65l2.91-.96c1.15-.38,2.14-.8,3.42-.86,1.48-.07,2.59-1.23,3.77-1.87l2.33-1.28c3.61-1.98,6.88-2.49,11.06-2.01l6.06.69,3.09.35,3.57.54c1.56.24,2.94.97,3.22,2.76.16,1.03,1.52,2.2,2.07,3.01.12,1.54.32,2.66.77,4.15.62,2.04-.77,4.72-.07,8.18.2.98.17,2.02.05,3.02l-.82,6.81c-.1.86-.17,1.73-.02,2.51.42,2.3.01,4.61-.31,6.95l-.37,2.71c-.24,1.76-.73,3.38-.85,5.23l-.27,4.53c-.04.62-.46,1.35-.84,1.85-.15,2.73-.29,5.32-.85,7.97l.62,1.59.14,4.18-.12,5.35.09,6.73c.03,1.83-.91,3.64-.35,5.52.52,1.72-.46,3.55-.12,5.07l.83,3.67c.36,1.6.52,3.05.45,4.74l.29,2.57.26,4.44.03,3.36-.36,1.6c-.18.79.03,1.41.29,2.29.22.72-.44,2.32-.26,3.05l.55,2.28.43,1.8c.35,1.48.25,2.87.4,4.35l.27,2.6c.09.85.08,1.41-.05,2.29-.24,1.61.17,3.36.43,4.96l.58,3.58.33,2.14.08,2.79.22,3.09-.33,3.43c-.08.86.03,2.11.15,3.02l.33,2.42,1.04,5.03c.22,1.08.68,2.37.68,3.4l.02,2.66.39,2.14.1,4.13.1,2.55.46,2.07.37,1.88c.26,1.33.8,2.97.71,4.3-.13,1.95-.27,3.78.33,5.59l.26,1.32c.16.83.33,2.17.24,2.89l-.36,2.91.35,2.23c.45,2.89.18,5.71.87,8.56.62,2.57.53,5,.51,7.59l.29,3.39c.13,1.5.16,2.9.05,4.42ZM321.42,66.74l-.68,3.27c-.56,2.71-.93,5.28-1.08,8.02l-.26,4.76c-.11,1.98-.46,3.9-1.04,5.76.39,1.88.08,3.6-.32,5.44l-.38,1.72c-.81,3.66-1.27,7.23-1.62,10.99l-.76,8.26c-.99,1.91-1.33,3.89-1.43,5.96l-.14,3.2-.74,6.01-.51,2.51-.66,3.77-.41,4.82-.42,2.93-.67,5.66-.75,4.81-.1,3.03c-.07,1.95-.2,4.03-.65,5.84-.62,2.5-.97,4.86-1.21,7.37l-.35,3.69c-.23,2.4-.59,4.74-.36,7.11.22,2.23-.02,4.36-.23,6.63l-.22,2.33.13,3.09c.07,1.56.11,2.89-.1,4.47-.43,3.2.17,6.42.5,9.64.14,1.35-.09,2.49,0,3.82l.34,5.32.22,3.3.34,3.27.4,5.21,1.17,5.88.84,4.77.15,2.87c.05,1.02.21,1.76.19,2.79l-.03,1.97.55,7.76-.06,3.14.62,6.44.71,4.73c.16,1.09-.11,2.39-.24,3.51-.26,2.35-.15,4.52-.05,6.88l-.18,3.47c-.06,1.14-.06,1.89-.13,2.96l-.28,4.49-.54,1.87-.7,2.22c-.21.65-1.24,1.59-1.73,2.14-.59,1.81-1.91,2.91-3.85,3.06-1.05.31-2.19.26-3.28-.06-1.1.5-2.24.72-3.43.47l-2.43-.64c-2.78.44-5.41.02-7.99-1.18-1.53.38-3.04.19-4.37-.68,0-1-.49-1.47-1.49-1.74-1.16-.3-2.41-1.7-2.45-3.08-.05-1.81-.1-3.24-.87-4.65-.06-3.01-.35-5.91-.89-8.91-.32-1.81-.15-3.53.12-5.33.23-1.54-.13-3.09-.26-4.64l-.25-2.9c-.37-4.39.73-7.39.61-8.31l-.84-6.35-.24-2.77c-.24-2.84.52-4.39.43-6.77l-.13-3.53-.21-3.56v-4.88c0-1.56-.81-3.39-.43-5,.84-3.51.38-6.69-.1-10.28l-.72-5.37-.18-5.47-.24-2.28c-.09-.84-.14-1.5-.33-2.36-.39-1.72,0-3.58-.02-5.3l-.02-2.65-.22-2.32-.28-6.3.07-5.53.17-3.22c-.05-.34-.13-1.09.07-1.39,1.66-2.42-.13-4.21,1.11-7.05.27-1.79-.32-2.94-.51-4.96l-.28-3.05.04-2.52.09-3.54-.12-1.99-.04-2.86c-.02-1.79.75-3.24,1.55-4.81.78-1.53.68-3.44.67-5.17l-.08-7.36.16-2.97c-.35-1.45-.44-2.64-.37-4.16l-.34-2.16c.16-1.57-.06-2.77-.73-4.17l-.09-4.41c-.04-1.71-.14-3.21.19-4.83l.49-2.43c.42-2.07-.29-4.45.07-6.57.57-3.38.86-6.52.12-9.94-.32-1.48-.35-3.03-.36-4.53l-.04-5.79c-.01-1.67.03-3.15.36-4.86.45-2.35-.82-4.9-.71-9.03l.16-5.99-.03-2.81-.02-2.49c-.01-1.33.04-2.22,1.26-3.04.7-.47,1.17-1.72,1.45-2.42,1.81-1.98,4.42-2.38,6.87-2.91,1.11-.73,2.2-1.7,3.74-1.68,2.51.03,3.5-1.89,6.71-2.72l5.2-1.35c2.04-.53,4.2-.06,6.28.32l5.63,1.01,4.17.94c1.13.25,2.6,1.67,3.44,2.41l.7,2.95c.11,2.29-.07,4.61-.35,6.93.74,3.63.9,7.15.48,10.86v3.16Z"/>
</svg>