<?xml version="1.0" encoding="UTF-8"?>
<svg id="_레이어_1" data-name="레이어 1" xmlns="http://www.w3.org/2000/svg" viewBox="0 0 163.26 292.55">
  <path d="M32.37,15.13c-5.49,81.65-9.51,163.4-12.05,245.19-.03,1.08-.03,2.28.67,3.1.75.89,2.04,1.05,3.2,1.14,31.96,2.55,64.11,2.8,96.11.73,1.81-.12,3.78-.31,5.09-1.57,1.3-1.25,1.56-3.2,1.76-4.99,8.39-77.53,18.13-156.85,26.52-234.38-40.88-2.47-80.41-6.74-121.29-9.22ZM98.98,247.7l-30.91,6.44-20.25-6.44-8.09-12.88s.06-2.51.15-6.56c.23-9.75.68-28.47,1.14-43.03.64-20.61-2.58-34.78-.64-59.83,1.93-25.05-5.15-18.1-4.27-29.05.89-10.95,0-13.74,0-13.74l11.71-41,34.42-10.95,59.89,28.34-43.15,188.7Z"/>
</svg>