<?xml version="1.0" encoding="UTF-8"?>
<svg id="_레이어_1" data-name="레이어 1" xmlns="http://www.w3.org/2000/svg" viewBox="0 0 315.69 371.89">
  <path d="M290.37,67.13c.3-7.19.71-14.52-1.16-21.46-1.87-6.95-9.52-13.3-16.34-15.6-77.23,3.03-157.65,2.49-234.8-2.18-13.06,102.97-19.2,206.82-18.35,310.62.02,2.29.11,4.77,1.54,6.56,1.64,2.05,4.51,2.53,7.11,2.84,14.13,1.66,28.36,2.25,42.58,2.83,74.64,3.06,149.61,6.1,223.87-2.03,7.31-93.65-8.41-187.73-4.44-281.58ZM46.56,110.07l.56-2.05.12-2.11c-.69-2.1-.52-4.08.24-6.11l.69-3.37c.6-2.93,1.15-6.41.42-9.14l.18-1.89c.14-1.49,1.07-2.98,1.3-4.42.48-3.08-.23-5.06.91-7.13.43-.79.73-1.4.83-2.21l.51-4.02c.18-1.42.88-2.88.47-4.4l-.53-1.96c-.4-1.48-.45-2.92.48-4.22l.12-.93c.43-.79.16-1.76.28-2.57.17-1.21.51-2.41.28-3.71-.33-1.8-.12-3.48,1.2-4.79.59-.09,1.57-.26,2.05-.16,1.61.42,3.28.03,4.74-.72h2.44c1.66-.02,3.4.87,5.12.53,1.27-.25,2.34-.15,3.62.04l1.75.26c1.55-.3,2.98-.05,4.52-.01l3.46.09c.39.01,1.3-.17,1.68-.11,3.89.65,5.28-.98,8.29-.97,3.02.78,6.08.96,9.03-.12l3.98-.14c1.7-.06,3.52.68,5.2.49l3.18-.35c1.48-.16,3.19-.38,4.55.12.95.35,1.49.29,2.49.26,1.79-.05,3.78.45,5.61.54,2.24.12,3.56-1.46,7.02-1.47h2.92c2.29.52,4.39.75,6.65-.1l2.42.06c1.62.54,3.11.7,4.7-.22,2.04.68,4.07,1.09,6.18,1.29,1.08.64,2.29.69,3.49.44l4.09.41,3.3.16c1.21.06,2.09-.23,3.14-.74,2.43-1.18,4.65.35,6.95-.68.83-.37,1.7-.92,2.63-.85,2.73.23,5.26.11,7.96-.28l2.11-.3c2.67-.39,4.14.68,5.8.28l1.52.5c1.91-.58,5.11-.49,6.89.29,1.09.48,2.19.27,3.3.3,1.22.03,2.79.73,4.04.55l3.7-.54,2.54-.09,2.95.22,2.68.5c.94.17,1.79.1,2.75.1h2.48c1.24-.01,2.66-.36,3.86.07,1.18.42,2.19.06,3.34-.04l2.19-.19,4.41.28,3.75.65c.91.16,2.37-.41,3.26-.08,1.25.47,2.45,1.07,3.71.88,1.26-.19,2.46-.38,3.73-.17l5.31.86,2.21.25c2.2-.22,4.5-.39,6.64-.12.69.1,1.78,1.15,1.97,1.79.2.7.52,1.67.48,2.27l-.14,2.34c-.12,1.96-.25,3.45.04,5.43.12.84.08,2.3-.06,3.14l-.52,3.17c-.24,1.49-.08,2.85.07,4.34l.33,3.4c.13,1.35-.11,2.52-.76,3.69v1.87c0,1.74.29,3.26-.2,4.97l-.81,2.79.09,2.06.21,3.36c.13,2-.08,3.97-.89,5.88-.52,1.22-.48,2.59-.31,3.94.26,2.12-.42,4.09-.77,6.17-.21,1.27.52,2.74.38,4.02-.13,1.24-1.09,2.82-.78,4.03.64,2.52.43,4.48-.42,6.83-1.14,3.18.97,7.62-.97,9.2-1.77,1.44-4.26,1.37-6.37,1.08l-3.46-.49c-.6-.08-1.75.16-2.42.29-2.56.49-5.03.73-7.64.77l-2.23.03-2.75.1c-.73.03-1.97.18-2.62.08l-3.52-.55c-.8-.12-1.68.08-2.54.16l-2.44.22c-1.61.15-4.24-1.27-7.98-.2-1.11.32-2.18.25-3.32.03l-3.16-.61c-1.37.22-2.28,0-3.61-.21l-2.88-.47-5.2-.78c-1.08-.16-2.31-.56-3.31-.2-1.99.71-3.98.57-5.84-.27l-3.24.58-4.88.49-2.51.16-2.62.03-1.98-.62c-1.57-.49-2.84-.58-4.54-.21l-2.68-.96c-1.11-.4-2-.41-3.12-.27-1.02.13-2.36-.31-3.44-.58-2.01-.49-3.89-.07-5.93.13-2.68.26-5.38-.25-8.05-.51l-4.7-.46c-1.37-.13-2.36-.2-3.69-.02l-2.4.32-2.4-.27c-2.76-.31-5.33-.72-8.11-.77l-3.63.24h-2.42s-2.45-.16-2.45-.16l-5.42-1.2c-1.99.23-3.91.5-5.79-.41-1.17-.57-2.15-.54-3.42-.19l-2.63.73c-.92.26-3.89.02-5.48-.41-1.49.14-2.03-.75-4.02-.02-2.58.95-6.47-.33-8.57-.23-1.82.08-3.3.12-5.05-.3-2.03-.48-4.06-.53-6.11-.28l-1.96.24-3.11-.39c-1.84-.23-3.48-.12-5.31.29-.93.21-2.03,0-2.93-.05l-2.73-.14c-1.51-.08-3.17-.07-4.6-.34-1.39-.26-2.31-.27-3.72-.15-1.49.13-3.14-.32-4.76-.55l-1.67-1.56c-.4-1.22-.25-2.47.07-3.7.71-2.64-1.38-4.22-.06-9.08ZM45.64,209.18l-.24-3,.1-2.5c.1-2.44.72-4.86.04-7.24l-.45-1.57-.32-1.68c-1.16-3.05.48-5.17-.4-8.1-.48-1.58-.5-2.94-.36-4.62l.21-2.47.21-3.84c.33-.84.46-1.74.24-2.55.54-1.08.31-1.76-.16-2.61l-.62-2.44-.49-2.78c-.27-1.51.7-3.33,1-4.82l-.33-1.87c-.19-1.11-.36-1.95-.07-3.05.46-1.75,2.25-1.89,4.38-2.3,1.22.19,2.14.39,3.27.28l1.72-.16,1.74-.41c.78-.18,1.75-.41,2.53-.18,3.94,1.16,5.89-.94,8-.27,1.82.58,3.24.54,5.11,0l3.71.19c1.07.06,2.34-.56,3.36-.48l3.44.25,2.7.27c1.46.14,2.6-.13,4-.16l2.67-.06,2.91.27,3.12-.17c.83-.04,1.85.06,2.68.18l3.45.49,2.6-.19,2.29-.36c.85-.13,1.62-.04,2.45-.19l2.63-.46c.96-.17,2.32.12,3.4.04,1.28-.1,2.77-.88,3.97-.81l2.71.16c1.5.09,2.71.04,4.07-.79.47-.29,1.46-.19,2.03-.22l2.81-.17c.79-.05,1.48.27,2.23.53,2.06.69,5.08-.79,7.05-.64l3.24.25c1.73.13,3.7.75,5.44.34,2.37-.54,4.51-1.22,6.96-.57l2.38-.97c.58-.24,1.45-.23,2.01-.34,1.68-.34,3.06-.6,4.83-.14.93.24,2.54.17,3.43-.06l2.04-.54c.75-.2,1.37-.03,2.16.12l2.69.52c1.04.2,2.32-.59,3.46-.57,1.98.03,4.26.56,6.1-.14,4.07-1.57,7.98-1.74,12.22-.83,2.17.47,3.69-.47,5.04-.11,1.66.43,2.81-.03,4.25-.74l3.33-.6c1.21-.22,2.56-.09,3.85.12,1.45.23,2.76-.04,4.19-.14,1.38-.09,2.67-.16,4.04-.47,1.12.3,2.26.3,3.36-.12l2.54-.26,6.28.13h1.85s3.6.22,3.6.22l3.66.1c.74.02,2-.42,2.78-.72.94-.36,1.36-.29,2.39-.07.79.17,2.32-.52,3.13-.42l3.16.4c1.36.17,2.68.1,4.14-.03l2.14-.74,2.76.37c1.95-.64,3.8-.7,5.64.15.25.47.59,1.35.61,1.8l.13,2.54-.13,2.73c-.05,1.04.51,3.72,1.13,5.07l.22,1.93-.1,2.64c-.06,1.51,0,3.17.21,4.71l.24,1.8c.19,1.45.23,2.78.22,4.25l-.02,2.51c-.01,1.44-.16,2.73.97,3.87l.21,1.61.27,2.06c.19,1.47-.48,2.83-.04,5.65l.42,2.64.42,4.46.88,6.49-.55,4.41c-.28,2.19,2.34,6.39-.43,8.89-1.17,1.05-2.97.06-4.16.37-3.02.81-5.73,1.24-8.82,1.53l-2.92.28c-1.62.16-2.98.15-4.69,0l-4.36.4h-2.1s-3.48-.5-3.48-.5c-2.2.78-4.07.93-6.41.72l-2.83.26c-.95.09-1.66,0-2.57.09l-3.69.41c-1.85.2-3.6.04-5.38.6-2.18.68-4.43.28-6.67-.09-1.36.44-2.69.35-3.99-.04-1.92.37-3.36-.48-5.12-.21-2.02.3-3.92.48-5.97.36-1.77-.11-3.12.45-4.8.8l-2.88.6-2.83.15-3.34.08-2.33.48-2.84.5-3.72.29-4.27.63-3.42.31-2.37-.09-3.63,1.29c-1.71.61-4.82-.13-8.22.4l-2.3.35c-.99.15-2.36.93-3.4.88l-1.96-.11c-1.73-.1-2.93-.36-4.59.31-1.56.62-3.23-.79-6.4-.31-.73.11-1.5.06-2.23.02-2.99-.17-5.18,1.86-7.8,1.72-2.64-.15-4.87.28-7.39.82-6.19,1.35-11.55-.59-17.77,1.54-2.17.74-4.46.51-6.7.77l-3.07.36c-2.32-.22-4.38-.33-6.63.57-.69.27-1.74.24-2.49.18l-3.15-.24-3.05-.44-2.17-.16-3.7.52c-2.19.31-5.07-1.19-9.48.03-1.88.52-3.66.29-5.5.11l-1.86-.18c-2.3-.23-5.42,1.15-6.39-.3-.54-.82-1.41-2.18-1.65-3.06-.63-2.36.26-4.82-.27-7.56l-.79-4.12-.57-4.99ZM276.6,255.84l-.17,3.42c-.09,1.79.49,3.62.12,5.29l-.33,5.06c-.09,1.45-.28,2.75-.19,4.28l.17,2.63c-.94,1.93-.93,3.65-.93,5.74l-1.05,4.65c.34,2.5,1,5.04.52,7.55-.65,3.34-.95,6.54-1.02,9.91-.03,1.42-.18,2.64.11,4.12.7,3.57-.14,4.59.04,6.88l-.68,2.83-.83,5.85c-.08.56-.07,1.68.06,2.2.61,2.44-.4,3.15-.73,4.02-.82,2.14-2.63,3.4-5.05,2.95l-2.88-.54-3.84.52c-1.88-.37-3.59-.83-5.48-.47l-2.12.4-3.11-.14-4.48-.71-2.15-.24-7.14.25-1.65-.09-3.75-.74-2.23.09-2.29.09h-2.22s-3.49-.12-3.49-.12c-1.67-.06-3.33-.04-4.98-.6-1.16-.39-2.07-.04-3.28,0l-2.3.06c-2.8-.66-5.55-.88-8.39-.36l-4.33-.35-2.73.5c-1.91.35-3.64.48-5.48-.28-2.2-.91-3.44.29-8.25-1.58-1.26-.49-3.57.48-7.31.07l-3.86-.42c-2.28-.97-4.28-1.26-6.64-.38-.79.29-2.04.13-2.91-.07-1.07-.24-2.18.27-3.27.41l-3.46.48c-.7.1-2.04.07-2.7-.08-1.91-.43-3.39-.58-5.4-.5-1.78.07-4.23-1.28-6.03-1.16l-2.15.15c-.85.06-1.86-.13-2.79-.31l-2.85-.58-4.7-.43c-1.22-.11-2.72-.69-3.89-.45-1.99.42-3.59.29-5.56-.17l-2.61-.61c-2.58.57-5.28,1.13-7.79.35-1.67-.52-2.95-.73-4.71-.16-1.49.48-3.25-.64-4.69-.66l-3.09-.04-2.92.09c-2.08.06-4.02-.17-6.15-.6l-2.33.31c-.86.11-1.68-.04-2.5-.22l-2.17-.48c-2.51-.55-5.42,1.01-9.72.18l-3-.28-3.18-.03c-1.61.48-3.02.92-4.65.18-1.4-.63-3.67.77-5.91-.03l-3.17-1.13-1.29-1.11c-.47-1.88.04-3.78-.04-5.71-.09-2.1-.02-4.09.37-6.13.14-.71.06-2.14,0-2.85l-.17-2.34c-.06-.81-.06-1.98.18-2.67l.67-1.88c.31-.86.67-1.45.89-2.36.2-.84.64-2.05.49-2.86-.44-2.56-.36-4.86.48-7.27.88-2.49,1.22-4.99.95-7.7-.11-1.13.71-2.26,1.01-3.23l.69-2.25.32-1.55.39-2.03c.17-.88.36-1.74.34-2.68-.02-.75.1-1.44.22-2.18l.58-3.44.16-2.88-.31-2.12c-.18-1.21-.4-2.39-.12-3.61l.63-2.78c.15-.67-.24-2.11.04-2.72,1-2.15,1.74-4.1,1.54-6.42.7-1.41,2.37-2.28,3.93-1.69l3.88-.65c3.51-.58,5.78.7,8.89-.24l1.61.04c.93-.05,1.56.05,2.4.19l2.23.36c1.41.23,4.09-1.74,9.72-.32,1.19.3,2.2.11,3.4.14l2.81.08,2.65.34,2.33-.03,3.24-.23,4.07-.58,3.11-.32,2.44-.26,6.57.55c2.35.2,4.41.44,6.8-.46,2.64-.99,6.7.48,10.14-.39,3.89,1.9,6.99-1.56,12.05.82,1.45.68,2.97-.25,5.47.26,2.07.43,4.01.31,6.14.13l2.41.15,3.17.55,2.25.54c2.01.49,3.9.85,5.76-.39,2.29.25,4.55.16,6.8-.17,1.05.36,2.12.61,3.25.69,1.36.88,2.94.86,4.4.11l1.82-.2c.96-.1,1.65.15,2.58.36.7.16,2.06-.19,2.81.13,1.56.67,2.89.37,4.42.29l2.56-.14c1.82,1.43,3.76,1.4,5.92,1.16l4.63.42c1.03.09,1.82-.03,2.8.19l2.02.44,3.93.32c2.08.7,3.67.74,5.77.83l4.1.78c1.37.26,2.4.39,3.73-.15,1.41-.58,2.95-.75,4.4-.37,1.94.51,3.97.26,5.94-.11,1.2-.81,2.59-.83,3.92-.43,2.28-.43,4.57-.75,6.82-.31l2.18.42c.5.1,1.56.33,2.08.28l3.64-.39c1.54-.17,2.57-.58,4.17-.03,1.4.48,3.42-1.08,5.44.19.62.39,1.07.57,1.86.69l.77,1.39.58,1.6c-.76,2.55-.68,4.97-.22,7.63Z"/>
</svg>