<?xml version="1.0" encoding="UTF-8"?>
<svg id="_레이어_1" data-name="레이어 1" xmlns="http://www.w3.org/2000/svg" viewBox="0 0 475.25 363.65">
  <path d="M475.25,80.2C333.7,56.38,192.02,32.54,49.17,18.41c-1.58-.16-3.3-.28-4.64.58-1.79,1.15-2.19,3.55-2.41,5.67-10.56,99.34-19.89,198.81-27.98,298.39,33.17,8.82,67.62,11.62,101.89,13.64,68.65,4.05,137.44,5.12,206.2,6.19,45.21.7,90.43,1.41,135.64,2.11,1.73-6.33,1.69-18.28-.14-24.59,10.34-77.93,16.2-161.6,17.52-240.2ZM444.05,237.97c-3.05,12.06-7.03,23.57-12.57,34.7-5.54,11.14-12.75,17.33-22.51,25.14-17.32,13.85-38.59,16.89-59.54,9.84-6.78-2.28-12.79-1.61-18.83-5.36l-10.21-6.36c-4.28-2.67-8.04-5.45-11.8-8.6l-11.75-13.04c-7.74-6.48-16.19-12.54-25.8-15.71l-9.42-2.17c-5.34-1.23-2.75-2-8.36-1.7-8.59.47-16.82,2.6-24.64,6.18l-8.16,3.74-10.61,5.17-18.79,12.34-13.02,8.56c-6.7,4.41-13.38,8.4-20.75,11.67-4.87,2.16-9.79,3.67-14.93,4.99-6.4,1.65-12.6,2.39-19.25,2.11-9.82-.43-19.4-1.85-28.52-5.66-16.09-6.72-30.13-21.08-37.23-36.99-3.97-8.9-7.02-17.97-9.07-27.54-4.49-20.98-6.71-40.92-4.1-62.26l2.7-17.19c.85-5.39,1.99-10.45,3.59-15.67,2.11-6.84,4.07-13.47,6.55-20.16,1.55-4.18,3.5-7.95,5.39-11.97,6.58-14.01,17.21-26.55,31.41-33.15,11.03-5.13,23.29-6.8,35.3-5.01,8.18,1.22,15.47,4.02,22.96,7.28,10.95,4.76,21.1,10.58,30.26,18.25,3.49,2.92,7.16,5.17,10.7,7.99l9.49,7.54c5.1,4.06,10.19,7.59,15.87,10.78l7.44,4.17c12.43,6.97,18.34,10.07,33.14,12.56,6.4,1.08,4.77.9,11.17,0,5.81-.81,11.15-1.84,16.39-4.65,4.36-2.33,8.38-4.86,12.13-8.14l13.47-15.16,16.17-7.37c9.64-7.81,20.78-13.15,32.71-16.46,15.14-4.2,31.09-3.11,45.12,3.9,5.37,2.68,9.72,6.32,13.76,10.69,4.82,5.22,9.12,4.87,12.16,11.35,4.6,9.79,7.87,19.76,10.1,30.4,3.92,18.75,5.61,37.74,5.85,56.92.15,11.71-1.11,22.78-3.96,34.06Z"/>
</svg>