<?xml version="1.0" encoding="UTF-8"?>
<svg id="_레이어_1" data-name="레이어 1" xmlns="http://www.w3.org/2000/svg" viewBox="0 0 358.67 234.7">
  <path d="M338.65,35.47c-1.75-9.37-7.73-19.06-17.01-16.91-98.59,4.72-197.6,7.53-296.25,4.05-6.94,48.19-8.45,97.16-4.5,145.68.58,7.08,1.48,14.67,6.19,19.99,5.82,6.57,15.51,7.63,24.27,8.26,87.74,6.24,175.49,12.48,263.23,18.72,6.15.44,13.08.62,17.58-3.6,3.29-3.09,4.41-7.79,5.3-12.21,10.86-53.91,11.27-109.92,1.18-163.98ZM323.18,153.5c-.42,13.42-.84,30.38-1.08,40.58-1.02.87-1.46,1.24-2.48,2.11-.76-.1-1.57-.09-2.22-.39-1.53-.69-3.07-.73-4.61-1.16l-5.86-1.64-2.07-.62-2.29-.86-4.29-.85-5.19-1.28c-1.3-.32-2.41-.7-3.76-.9-1.6-.24-3.22-1.12-4.84-1.21-1.96-.11-3.65-.31-5.39-1.31-.86-.5-1.96-.6-2.96-.78l-2.44-.44-9.7-2.35c-1.46-.35-2.87-.88-4.29-1.37-1.43-.49-3.06-.2-4.55-.53l-6.05-1.33-3.08-.68c-1.49-.33-2.82-.48-4.24-1.21-1.5-.77-3.15-1.21-4.83-1.33-1.72-.12-3.09-.48-4.72-1.15-2.75-1.12-5.6-.6-7.94-1.35-.99-.32-2.06-.8-3.09-.87-2.06-.14-3.81-.54-5.63-1.46-.87-.44-2-.36-2.98-.59l-5.68-1.31-10.23-2.33-4.85-.91-6.11-1.57-8.28-1.94c-2.16-.51-3.14.36-6.12-.96-1.17-.52-2.68-.54-3.9-.97-2.11-.74-4.02-1.19-6.23-1.3-1.24-.06-2.44-.45-3.59-.92-1.57-.64-2.97-.56-4.54-.71-1.62-.16-3.19-.93-4.79-1.29l-2.82-.64-5.15-.65c-2.25-.28-4.26-1.15-6.43-1.7-1.83-.46-3.64-.54-5.43-1.26-1.65-.66-3.49-.69-5.23-.98l-2.66-.45-3.89-.96-2.78-.33c-2.08-.25-3.97-1.17-5.99-1.66-.87-.21-1.96-.12-2.81-.47-1.78-.73-3.43-.93-5.36-.89-2.45.06-4.03-1.77-7.93-1.72-1.73.02-3.31-.9-4.98-1.19l-7.2-1.24c-1.38-.24-2.68-.77-3.95-1.35-1.64-.76-3.57-.45-5.31-.88l-5.82-1.42-9.67-1.62c-2.79-.47-5.19-1.86-6.91-4.17l-.73-2.07c-.66-3.76-.95-9.26.67-12.38.88-1.69,2.45-2.8,4.13-3.4l4.47-1.59c1.97.51,3.81.22,5.69-.4,4.22-.54,8.27-1.39,12.34-2.66,1.79-.56,3.49-.84,5.31-1.17,1.23-.22,2.48-.68,3.74-.82,1.83-.2,3.36-.82,4.97-1.6,1.57-.76,3.14-.82,4.82-.81,1.52,0,3-.7,4.36-1.31,1.09-.67,2.28-.89,3.55-.85,2.39-.95,4.75-1.52,7.29-1.77,2.24-.22,4.56-.6,6.55-1.6.95-.48,1.52-.71,2.62-.79l2.54-1.04c.75-.31,1.62-.09,2.23-.48,1.39-.87,2.67-.99,4.27-.81.67.07,1.57-.34,2.35-.38l2.02-.11,3.29-.77c2.42-.57,4.76-1.41,7.26-1.62,1.46-.12,2.88-.55,4.13-1.31,1.2-.72,2.43-.87,3.78-1.16l11.35-2.4c.92-.2,2.11-.03,2.97-.38,1.97-.81,3.85-1.31,5.92-1.59,1.05-.14,2.74-.54,3.75-.89l4.17-1.44c2.31-.8,4.61-1.35,7.08-1.66,1.2-.15,2.33-.45,3.39-.99,1.29-.65,2.77-.86,4.21-.73,1,.1,2.09-.32,3.1-.61,5.87-1.7,11.65-3.18,17.67-4.34l5.92-1.76,3.96-.94,4.7-1.25,9.3-1.88c1.8-.36,3.36-.26,4.96-1.4.93-.66,2.44-.66,3.57-1l4.06-1.23,6.86-1.37c1.79-.36,3.41-1.16,5.26-1.28,1.51-.1,2.86-.43,4.15-1.18,2.08-1.2,4.51-.72,6.71-1.36l4.73-1.37c1.29-.37,2.39-1.01,3.81-.88,1.71.15,3.26-.34,4.91-.72l3.55-.81c1.26-.29,2.16-.41,3.31-.95.87-.41,2.05-.73,3.02-.94l2.51-.56,3.79-.84,6.96-1.48,3.69-.7c1.9-.36,3.75-.82,5.31-2.08,0,0,.89,2.79,0,13.74-.89,10.95,6.2,4,4.27,29.05-1.93,25.05,1.29,39.22.64,59.83Z"/>
</svg>