<?xml version="1.0" encoding="UTF-8"?>
<svg id="_레이어_1" data-name="레이어 1" xmlns="http://www.w3.org/2000/svg" viewBox="0 0 295.16 277.68">
  <path d="M279.82,25.17c-79.15-.91-158.63-2.94-237.69-6.86-1.69-.08-3.49-.15-4.98.66-2.56,1.39-3.22,4.69-3.6,7.58-9.33,71.49-11.74,143.88-7.19,215.84.1,1.55.23,3.19,1.16,4.43,1.13,1.52,3.14,2.04,4.99,2.45,70.41,15.56,143.61,7.94,215.31.25,1.73-.19,3.55-.41,4.93-1.47,1.68-1.29,2.3-3.5,2.79-5.56,6.16-26.23,6.4-53.42,8.5-80.28,2.82-35.95,9.05-71.63,18.57-106.41,2.89-10.55,5.12-23.1-2.81-30.64ZM237.11,220.71l-3.16.07-2,.31-3.08.05-4.28.37-1.87.25-2.51.24-1.83.33h-2.54s-4.3.16-4.3.16l-2.24.25-2.76.29-2.28.27-3.32.38-3.04.28c-1.28.12-2.38.16-3.65.03l-1.74.05-2.12.3-3.14.14-2.15.38-4,.25-3.46.39-2.62.27-3.88.41c-1.32.14-2.49.03-3.87.13l-2.24.17-2.14.34c-.97.15-1.8.18-2.78,0-1.24-.23-2.54.11-3.81.28l-2.46.32-1.94.23-4.09.33-3.17.41-3.75.27-2.43.1c-.72.15-1.38.44-2.09.22-.66-.21-1.2.23-1.82.26l-3.18.19-5.65.44-3.22.25-2.14.19-2.56.27-3.34.37-4.06.24c-.65.04-1.51.33-2.17.38l-1.8.11-3.43.38c-.99.11-1.72-.06-2.72.26-.54.17-1.48.04-2.08.13-1.95.31-3.8-.17-5.48.26-1.73.44-3.19.5-4.96.7l-2.4.26-2.67.19-2.24.16-2.31.06c-.46.01-1.43.55-1.87.39-.99-.36-1.91-.38-2.82.13-1.17.66-2.54.16-3.75.26l-2.39.2c-.52.04-1.27.25-1.84.23l-1.97-.07c-.66-.03-1.59.01-2.28.1l-1.51.2c-.24.54-.94.33-2.72.5-.64.06-1.66-.28-2.29,0-.81.38-1.36.42-2.23.17-.69-.2-1.56.24-2.28.33-1.31.16-2.59.12-3.85.5-.96.3-1.94.19-2.88-.48-1.51-1.08-1.09-3.84-1.62-5.21-.34-.87-.29-1.47.44-2.21.23-2.18-.87-2.96-.32-5.23.59-2.39-.37-5.99.12-7.64.3-.99.48-1.71-.15-2.5l.38-2.03c.05-.25.33-.78.54-.78h.75s2.71-.34,2.71-.34c.89-.11,1.69-.17,2.55.09.66.19,1.63.38,2.29.45.91-.48,1.59-.59,2.55-.47l2.37.3,3.67.31c1.22.1,2.46.07,3.66.06l1.32-.02,1.9.19c1.11.11,1.28-.69,3.02.06,1.95-.41,4.64-.35,6.52.09.93.22,1.79.4,2.74.37l2.47-.09,3.12.1,3.29.11,1.89.04c2.09.04,3.71,1.05,7.33.74l2.17-.19c.76-.07,1.83.31,2.63.27,2.18-.11,4.22-.27,6.36.06l3.08.47c1.48.22,2.82.16,4.25.14l2.72-.05,3.02.23h1.37s2.54-.08,2.54-.08l1.68.13,2.39.36c2.63.4,4.46-.19,6.87.07l2.91.32,1.88-.18,2.1.36c.86.15,1.41.32,2.28.14.47-.1,1.44-.1,1.94-.04l3.15.38,3.25.04h.95s2.19-.02,2.19-.02c1.54-.01,3.09-.14,4.6.28,1.13.31,2.23.3,3.41.27l1.94-.06,3.66.05,2.87.22,2.96.09,4.52.07,2.77.2,3.03.33,4.45.16h1.53c2.03-.29,3.96.09,6.01.28l2.84-.13c.89-.04,1.57.06,2.45.12l2.71.19c1.04.07,1.87-.24,3.03.17,1.44.51,2.6-.15,3.74-.03l2.73.3,2.66-.16,2.34-.02,2.66.25h2.48s1.62.09,1.62.09l2.31.29c1.63.2,3.04-.14,4.68.27.42.1,1.18-.21,1.65-.21l3.02.02.41,2-2.74.31ZM42.08,164.41l.08-2.53c-.15-2.32-.2-4.59.43-6.77l.52-1.09c2.34-.64,4.2,1.15,6.42.55,1.3-.35,2.3-.4,3.68.05,1.86.6,4.22-.1,7.21.32l1.97.28c.81.11,1.87-.21,3.89-.03l2.61.23,2.12.26c1.85-.03,3.58-.14,5.38-.03l5.55.32c2.18.13,4.22.54,6.41.57l2.68.04,2.51.1c1.65.06,2.95.66,4,.57,1.41-.12,2.54-.17,3.91.02.94.13,2.09,0,2.98.19l1.63.35c1,.22,2.09-.2,3.06-.16l3.11.12,1.61.25,1.48.26,4.55.04,1.98.07,2.3.12,2.05.32,2.2.3,3.01-.05,2.59.14,3.63.17,2.42.05h1.64s6.41.77,6.41.77l2.6.13,6.38.11,3.06.26,2.11.3c.74.11,1.49.28,2.26.12.75-.15,1.43-.08,2.16-.05l2.36.08,2.58.39,3.74.19,2.14.12,3.85.09,2.36.26,4.02.23,3.98.16c1.6.07,3.03.08,4.64.22l3.04.28,6.37.43,4.45.15c.65.02,1.32.15,1.97.3.98.23,2.02-.16,3.05-.07l2.3.19,2.29.26,3.1.29,2.31.21,3.85.19,2.74-.03c.57,0,1.54.3,2.08.25,1.15-.11,1.77-.07,2.74.02l1.09,1.66-1.95.21-2.88.15-1.9.18-4.32.16-7.12.6-3.38.41c-1.18.14-2.26.24-3.44,0l-.94.34c-1.13-.27-2.1-.13-3.19.07l-1.72.32-2.24.27-2.16.05-3.44.26-2.88.39c-.84-.13-1.68-.12-2.55,0l-2.11.25-3.58.42-6.01.58-2.13.3c-.86.12-1.99.38-2.81.25-2.06-.34-3.16.48-5.61.47l-3.14-.02-2.28.34c-.66.1-1.4.32-2.02.26-1.44-.14-2.63.03-4.03.48-.72.23-1.64.13-2.44.17l-2.89.13c-1.16-.19-2.27-.18-3.45.09-2.16.49-4.24.75-6.43.94l-6.93.62c-1.22.11-2.56.4-3.74.26-1.05-.13-1.77-.21-2.8.17-.54.2-1.43.08-2.06.16l-5.41.62c-.58.07-1.34-.25-1.92-.11l-2.42.57-8.42.55-4.14.55c-.7.09-1.45.35-2.14.13-.74-.24-1.49-.14-2.23.06-2.57.71-5.14.5-7.78.61l-2.72.11-2.84.27c-.86.54-1.75.68-2.64.36l-4,.51c-1.3.17-2.55.44-3.86.32-2.33-.21-4.58.05-6.82.75-1.23-.39-2.37-.2-3.52.16l-2.04.3-1.98.09c-1.15.05-2.16.11-3.3-.05-1-.14-2.05.16-3.07.26l-1.92.18c-1.03.1-1.9-.01-2.88.19l-1.81.38-3.4.48c-1.64.23-3.43-.26-4.22-.01-.27.08-.83.05-.89-.2l-.22-.89c-.23-.94-.22-1.64-.15-2.71.04-.68-.28-1.7-.35-2.42l-.2-2c-.12-1.14.23-2.12.12-3.27l-.16-1.68c-.11-1.11.01-2.05.19-3.2.12-.8.04-1.86.07-2.75ZM254.84,112.18l-2.4.15-2.5.21-3.16.37.82.19c-.73.06-1.35-.08-2.04.03l-1.43.23c-.71.11-1.39.06-2.12.08l-2.19.07-2.84.18-2.45.26-2.86.35-5.61.36c-1.02.07-1.79.05-2.84.17l-1.98.22-5.25.34-3.27.35-3.47.21-1.84.29-1.65.17-3.75.23-3.77.2-3.23.21-3.48.2-1.59.17-2.62.42-2.71.18-2.37.26-5.54.45-3.42.24-2.51.21-2.29.24c-.36.04-1,.14-1.3.06-.95-.26-1.7-.24-2.6-.09l-2.25.39c-.77.3-1.58.25-2.31.07l-3.64.42-4.44.35-2.72.33h-2.13s-3.27.18-3.27.18l-2.37.18-1.88.12-5.77.75-3.11.19c-1.47.09-2.89.07-4.4.2l-4.39.38-1.77.18-1.06.12-4.52.32-2.12.07c-1.13-.06-2.19.1-3.26.47-.93-.22-1.78-.23-2.71-.12l-1.62.46c-.57.16-1.55-.16-2.21-.11-.95.07-1.95.55-2.88.39-.83-.14-1.39,0-2.2.09-.83.1-1.8-.27-2.67.07-1.15.46-2.41.23-3.61.34l-2.52.22-2.47.24-1.92.26-3.63.23c-1.23.08-2.28.53-3.56-.18l-2.61.6c-1.22-.24-2.14-.07-3.34.05l-3.62.34-2.85.42c-1.08.16-1.94,0-3.04.03l-1.81.05-2.92.03-1.69.18-1.38.15-2.27.47c-.84.18-1.7.06-2.56.09l-3.4.1h-.51s-.35.57-.35.57c-1.96,0-2.51-2.38-2.69-4.77l-.13-1.65-.46-1.88.76.54-.21-3.26-.49.91-.11-2.88c-.03-.88.07-1.47.36-2.29.18-.54.24-1.77.18-2.34-1.16-2.99.55-5.12-.03-7.53l-.31-.71c-.07-.15.42-.4.58-.52.34-1.39-.21-2,.44-3.98.12-.37.17-1.25.45-1.53.91-.9,1.86-.74,2.96-.12.26-.03.2-.18-.14-.54,1.13.31,2.24.49,3.47.32,2.06-.29,4.06.06,5.97.82,1.71-.16,3.33-.09,4.99.24l3.03-.15,4.01.18,4.05.46,3.58.23,1.73.06,1.99.18,2.03-.14c2.16-.15,3.26.54,4.79.33.7.31,1.43.37,2.17.11,1.14.36,2.27.43,3.47.16.74.5,1.53.73,2.33.27,1.76.69,3.53.19,5.37.33l4.22.31,4.34.38,4.15.1,2.88.19,2.94.34,3.45.19,2.57.21c1.22.1,2.56-.46,3.8.38.72-.62,1.5-.4,2.28-.03.85-.24,1.68-.16,2.46.14.66-.18,1.34-.18,2-.01l2.2.04,2.17.16,1.51.34c1.34.31,2.52.22,3.89.02l2.98.27,1.79.1,6.57.48,1.94.17,3.3-.02,3.83.41,3.44.31,2.5.14,2.52.07c.89.03,2-.19,2.84.05,1.32.37,2.5.74,3.84.53.68-.11,1.32-.07,2.02,0l2.03.19h2.16s4.04.29,4.04.29l2.08.16,1.79.05,2.02.14c1.4.39,2.54.46,3.93.5l2.12.05,6.53.2,2.7.18,4.96.37,6.39.44,1.88.31,2.96-.09,5.75.48,2.38.08,3.43.31,3.06.29,1.49-.11,2.15.22.39.11,3.54.29,1.94.15,3.81.13-.08,2.28ZM264.55,55.39l-2.68.21-3.48.47-3.9.19-2.04.29-3.45.23-.66.23-2.52.18-3.31.21-2.05.35c-1.01.17-1.9.22-2.91-.02l-1.12.2-2.92.16-2.26.33c-.87-.11-1.67-.01-2.57.11l-1.7.24-2.9.21-2.89.07-1.89.22-2.63.12-2.02.25-1.57.08-1.89.1-2.15.2-2.64.16-2.14.21-2.99.3-3.53.34c-.9.09-1.63.14-2.58-.05-.53-.1-1.33.25-1.87.29l-3.28.27-3.46.28-2.67.19c-1.06-.26-2.13-.33-3.11.28l-4.59.05-2.92.4c-2.68.37-3.99-.3-6.26.45-.81.27-1.56.07-2.43-.09-.7-.13-1.77.46-2.46.49l-2.51.12-6.37.45-4.69.21c-1.38.06-2.55.45-3.84.21-.51.18-1.09.1-1.71.13l-4.1.22-5.45.57-1.77.18-2.85.14c-.76.04-1.44.11-2.19-.03-1.07-.2-2.13.28-3.22.31l-2.49.06-3.29.29-2.1.19c-.98.09-1.89.29-2.91.2-.79-.07-1.82-.36-2.51-.06-.85.38-1.41.19-2.31.3l-2.42.29-1.56.06h-1.17c-1.09-.03-2.04-.1-3.12.02l-2.3.25-2.95.19c-1.48.1-2.86.08-4.33.44-.66.16-1.29-.01-2.04-.11-.56-.08-1.43.43-2.09.44l-3.15.04c-1.03.01-1.88.58-2.93.24-.68-.22-1.46-.04-2.18.17-1.42.41-2.79.18-4.19.16-.72,0-1.48.24-2.22.06-1.14-.29-2.24.04-3.37.32-.94.23-1.79-.18-2.72-.03l-2.45.39c-1.66-.16-3.03-.11-4.67.24l-2.83-.2c-2.62.7-4.94.68-7.58.36l-2.57.18c-.72.05-1.32.29-1.87-.35-.32-.36-.45-1.09-.42-1.67.05-.99-1.54-1.79-.4-3.01l-.65-1.55c.22-.88.2-1.54-.03-2.5-.02-.44-.19-.3-.27.02l-.15,1.21c-.42-1.53-.32-2.96-.09-4.61l-.15-2.04-.14-3.54-.23-3.02c-.07-.84.1-1.59.17-2.45l.19-2.24.2-1.07c-.09-.2-.03-.28.14-.14.33.36.36.15.19-.19-.03-.81-.06-1.7.14-2.31l.57-1.77c.29-.9.6-1.82.78-2.88.31.06,1-.13,1.21-.44l.26-.38c.04-.05.03-.09-.04-.11l-.63-.13c2.3-1.51,3.96.19,4.12.09l.77-.46c.81-.48,2.34.8,4.91.7l3.33-.12c.59-.02,1.44.76,2.15.11.85-.03,1.63.04,2.39.37l5.43-.14c1.58-.04,3.19.65,4.77.86,1.52.19,2.77.05,4.26-.12.8-.09,1.94.66,2.71.36,1.4-.53,2.7-.11,4.09.01l3.74.32,2.04.36,3.56.15,1.96.23,2.69.15,5.57.31,2.93.14,2.03.3c.66.1,1.14-.14,1.86-.04l2.22.32c.91.13,1.81-.17,2.69-.1l4.16.31,3,.49,3.24.1c.64.02,1.29.19,1.87.07,1.87-.4,3.61.34,5.48.49.79.06,1.81-.36,2.59-.1,1.35.45,2.62.68,4.01.7l3.21.04,4.03.21,7.66.49,2.36.14h.91c1.12-.01,1.91.07,2.99.36,2.61.72,4.56-.45,7.49.59.49.17,1.52-.23,2.05-.15l3.13.49c.9.14,1.73-.04,2.68.02l2.25.15,1.95.2,11.14.77,2.94.4,3.86.24,2.86.21,2.72.21,5.83.37,2.42.19c.82.06,1.45.02,2.24.12l1.98.25,1.46.14,2.32.19,2.63.1,7.73.57c.89.07,1.91-.21,2.85.14,1.24.46,2.41.2,3.66.33l5.89.6,4.03.37,2.22.15-.04.16,2.76.25,3.26.17,3.09.27,1.97.08,8.98.87,4.88.35.58,3.37c-2.96.67-5.71.48-8.7.72Z"/>
</svg>